<svg xmlns="http://www.w3.org/2000/svg" width="368" height="392" viewBox="0 0 368 392">
  <g id="Card" transform="translate(-35 -40)">
    <g id="Base" transform="translate(35 40)" fill="#fff" stroke="rgba(0,0,0,0.15)" stroke-width="1">
      <rect width="368" height="392" rx="4" stroke="none"/>
      <rect x="0.5" y="0.5" width="367" height="391" rx="3.5" fill="none"/>
    </g>
    <path id="Image" d="M4,0H364a4,4,0,0,1,4,4V220a0,0,0,0,1,0,0H0a0,0,0,0,1,0,0V4A4,4,0,0,1,4,0Z" transform="translate(35 40)" fill="rgba(0,0,0,0.08)"/>
    <g id="Avatar_and_Time" data-name="Avatar and Time" transform="translate(0 -65)">
      <g id="Avatar">
        <rect id="Avatar-2" data-name="Avatar" width="32" height="32" rx="4" transform="translate(59 447)" fill="rgba(0,0,0,0.08)"/>
        <rect id="Rectangle_22" data-name="Rectangle 22" width="153" height="16" transform="translate(99 447)" fill="rgba(0,0,0,0.08)"/>
        <rect id="Rectangle_23" data-name="Rectangle 23" width="103" height="12" transform="translate(99 467)" fill="rgba(0,0,0,0.08)"/>
      </g>
    </g>
    <g id="Views" transform="translate(0 -6)">
      <g id="Group_12" data-name="Group 12" transform="translate(333 392)">
        <rect id="Rectangle_15" data-name="Rectangle 15" width="24" height="24" fill="rgba(0,0,0,0.08)"/>
      </g>
      <rect id="Rectangle_28" data-name="Rectangle 28" width="14" height="18" transform="translate(365 396)" fill="rgba(0,0,0,0.08)"/>
    </g>
    <rect id="Rectangle_24" data-name="Rectangle 24" width="320" height="18" transform="translate(59 297)" fill="rgba(0,0,0,0.08)"/>
    <rect id="Rectangle_25" data-name="Rectangle 25" width="320" height="18" transform="translate(59 321)" fill="rgba(0,0,0,0.08)"/>
    <rect id="Rectangle_26" data-name="Rectangle 26" width="140" height="18" transform="translate(59 345)" fill="rgba(0,0,0,0.08)"/>
    <rect id="Rectangle_27" data-name="Rectangle 27" width="70" height="12" transform="translate(59 276)" fill="rgba(0,0,0,0.08)"/>
  </g>
</svg>
