<svg xmlns="http://www.w3.org/2000/svg" width="704" height="1535" viewBox="0 0 704 1535">
  <g id="Contents" transform="translate(12 -210)">
    <g id="Story" transform="translate(48 850)">
      <g id="Group_404" data-name="Group 404" transform="translate(-60 -38)">
        <rect id="Image" width="704" height="266" transform="translate(0 416)" fill="rgba(0,0,0,0.08)"/>
        <rect id="Rectangle_41" data-name="Rectangle 41" width="557" height="13" transform="translate(0 690)" fill="rgba(0,0,0,0.08)"/>
      </g>
      <rect id="Rectangle_39" data-name="Rectangle 39" width="704" height="16" transform="translate(-60 -53)" fill="rgba(0,0,0,0.08)"/>
      <rect id="Rectangle_40" data-name="Rectangle 40" width="704" height="16" transform="translate(-60 -31)" fill="rgba(0,0,0,0.08)"/>
      <rect id="Rectangle_40-2" data-name="Rectangle 40" width="704" height="16" transform="translate(-60 -9)" fill="rgba(0,0,0,0.08)"/>
      <rect id="Rectangle_40-3" data-name="Rectangle 40" width="704" height="16" transform="translate(-60 13)" fill="rgba(0,0,0,0.08)"/>
      <rect id="Rectangle_40-4" data-name="Rectangle 40" width="704" height="16" transform="translate(-60 35)" fill="rgba(0,0,0,0.08)"/>
      <rect id="Rectangle_40-5" data-name="Rectangle 40" width="704" height="16" transform="translate(-60 57)" fill="rgba(0,0,0,0.08)"/>
      <rect id="Rectangle_40-6" data-name="Rectangle 40" width="504" height="16" transform="translate(-60 79)" fill="rgba(0,0,0,0.08)"/>
      <rect id="Rectangle_40-7" data-name="Rectangle 40" width="704" height="16" transform="translate(-60 123)" fill="rgba(0,0,0,0.08)"/>
      <rect id="Rectangle_40-8" data-name="Rectangle 40" width="704" height="16" transform="translate(-60 145)" fill="rgba(0,0,0,0.08)"/>
      <rect id="Rectangle_40-9" data-name="Rectangle 40" width="704" height="16" transform="translate(-60 167)" fill="rgba(0,0,0,0.08)"/>
      <rect id="Rectangle_40-10" data-name="Rectangle 40" width="704" height="16" transform="translate(-60 189)" fill="rgba(0,0,0,0.08)"/>
      <rect id="Rectangle_40-11" data-name="Rectangle 40" width="704" height="16" transform="translate(-60 211)" fill="rgba(0,0,0,0.08)"/>
      <rect id="Rectangle_40-12" data-name="Rectangle 40" width="114" height="16" transform="translate(-60 233)" fill="rgba(0,0,0,0.08)"/>
      <rect id="Rectangle_40-13" data-name="Rectangle 40" width="704" height="16" transform="translate(-60 277)" fill="rgba(0,0,0,0.08)"/>
      <rect id="Rectangle_40-14" data-name="Rectangle 40" width="704" height="16" transform="translate(-60 299)" fill="rgba(0,0,0,0.08)"/>
      <rect id="Rectangle_40-15" data-name="Rectangle 40" width="704" height="16" transform="translate(-60 321)" fill="rgba(0,0,0,0.08)"/>
      <rect id="Rectangle_40-16" data-name="Rectangle 40" width="64" height="16" transform="translate(-60 343)" fill="rgba(0,0,0,0.08)"/>
      <rect id="Rectangle_42" data-name="Rectangle 42" width="704" height="16" transform="translate(-60 681)" fill="rgba(0,0,0,0.08)"/>
      <rect id="Rectangle_43" data-name="Rectangle 43" width="704" height="16" transform="translate(-60 703)" fill="rgba(0,0,0,0.08)"/>
      <rect id="Rectangle_44" data-name="Rectangle 44" width="704" height="16" transform="translate(-60 725)" fill="rgba(0,0,0,0.08)"/>
      <rect id="Rectangle_45" data-name="Rectangle 45" width="704" height="16" transform="translate(-60 747)" fill="rgba(0,0,0,0.08)"/>
      <rect id="Rectangle_46" data-name="Rectangle 46" width="704" height="16" transform="translate(-60 769)" fill="rgba(0,0,0,0.08)"/>
      <rect id="Rectangle_47" data-name="Rectangle 47" width="704" height="16" transform="translate(-60 791)" fill="rgba(0,0,0,0.08)"/>
      <rect id="Rectangle_48" data-name="Rectangle 48" width="174" height="16" transform="translate(-60 813)" fill="rgba(0,0,0,0.08)"/>
      <rect id="Rectangle_49" data-name="Rectangle 49" width="704" height="16" transform="translate(-60 857)" fill="rgba(0,0,0,0.08)"/>
      <rect id="Rectangle_50" data-name="Rectangle 50" width="554" height="16" transform="translate(-60 879)" fill="rgba(0,0,0,0.08)"/>
    </g>
    <g id="Top" transform="translate(40 611)">
      <g id="Key_Points" data-name="Key Points" transform="translate(-52 90)">
        <rect id="Rectangle_36" data-name="Rectangle 36" width="659" height="18" fill="rgba(0,0,0,0.08)"/>
        <rect id="Rectangle_37" data-name="Rectangle 37" width="639" height="18" transform="translate(0 26)" fill="rgba(0,0,0,0.08)"/>
        <rect id="Rectangle_38" data-name="Rectangle 38" width="549" height="18" transform="translate(0 52)" fill="rgba(0,0,0,0.08)"/>
      </g>
      <rect id="Rectangle_34" data-name="Rectangle 34" width="704" height="34" transform="translate(-52 -1)" fill="rgba(0,0,0,0.08)"/>
      <rect id="Rectangle_35" data-name="Rectangle 35" width="603" height="34" transform="translate(-52 41)" fill="rgba(0,0,0,0.08)"/>
    </g>
    <g id="Image-2" data-name="Image" transform="translate(-60 37)">
      <rect id="Image-3" data-name="Image" width="704" height="332" transform="translate(48 204)" fill="rgba(0,0,0,0.08)"/>
      <rect id="Rectangle_33" data-name="Rectangle 33" width="557" height="13" transform="translate(48 544)" fill="rgba(0,0,0,0.08)"/>
    </g>
    <rect id="Rectangle_54" data-name="Rectangle 54" width="136" height="16" transform="translate(-12 210)" fill="rgba(0,0,0,0.08)"/>
    <rect id="Rectangle_55" data-name="Rectangle 55" width="136" height="12" transform="translate(556 212)" fill="rgba(0,0,0,0.08)"/>
  </g>
</svg>
