<?xml version="1.0" encoding="utf-8"?>
<!-- Generator: Adobe Illustrator 16.0.0, SVG Export Plug-In . SVG Version: 6.00 Build 0)  -->
<!DOCTYPE svg PUBLIC "-//W3C//DTD SVG 1.1//EN" "http://www.w3.org/Graphics/SVG/1.1/DTD/svg11.dtd">
<svg version="1.1" id="Capa_1" xmlns="http://www.w3.org/2000/svg" xmlns:xlink="http://www.w3.org/1999/xlink" x="0px" y="0px"
	 width="800px" height="800px" viewBox="0 0 800 800" enable-background="new 0 0 800 800" xml:space="preserve">
<g>
	<g>
		<path fill="#ED1F34" d="M695.774,401v-1c0-6.563-5.34-11.903-11.903-11.903H24.807V153.839h750.387v234.258h-39.709
			c-6.563,0-11.903,5.34-11.903,11.903v1H695.774z M181.256,181.645c-49.252,0-89.322,40.07-89.322,89.323
			s40.07,89.323,89.322,89.323c15.296,0,30.412-3.954,43.713-11.435c4.835-2.718,7.14-8.337,5.604-13.667
			c-1.481-5.15-6.07-8.61-11.419-8.61c-0.197,0-0.396,0.005-0.594,0.015c-0.919,0.043-1.844,0.07-2.772,0.07
			c-30.711,0-55.696-24.984-55.696-55.694c0-30.711,24.985-55.696,55.696-55.696c0.928,0,1.854,0.026,2.771,0.07
			c0.168,0.009,0.343,0.011,0.504,0.013l0.162,0.002c6.524-0.021,11.848-5.36,11.848-11.903c0-4.592-2.565-8.694-6.695-10.707
			C211.191,185.476,196.296,181.645,181.256,181.645z M231.431,287.77c-4.072,0-7.927,1.96-10.312,5.243
			c-2.011,2.76-2.827,6.135-2.297,9.506c0.531,3.372,2.349,6.337,5.118,8.351c2.19,1.588,4.781,2.429,7.491,2.429
			c4.078,0,7.938-1.967,10.327-5.261c2.006-2.762,2.814-6.138,2.277-9.508c-0.535-3.368-2.344-6.322-5.096-8.318
			C236.741,288.614,234.145,287.77,231.431,287.77z M269.858,287.771c-2.716,0-5.306,0.84-7.491,2.429
			c-2.768,2.007-4.584,4.972-5.117,8.349c-0.532,3.375,0.276,6.74,2.274,9.473c2.396,3.304,6.259,5.275,10.336,5.275
			c2.709,0,5.304-0.844,7.506-2.44c5.684-4.131,6.948-12.127,2.817-17.824C277.791,289.739,273.93,287.771,269.858,287.771z
			 M281.732,251.225c-1.333,0-2.662,0.211-3.95,0.628c-3.244,1.055-5.882,3.313-7.428,6.355c-1.546,3.042-1.817,6.489-0.765,9.707
			c1.71,5.288,6.589,8.838,12.142,8.838c1.34,0,2.669-0.211,3.951-0.627c6.681-2.175,10.352-9.4,8.181-16.107
			C292.144,254.76,287.269,251.225,281.732,251.225z M219.556,251.225c-5.536,0-10.416,3.552-12.144,8.838
			c-2.161,6.682,1.517,13.889,8.199,16.064c1.275,0.416,2.604,0.626,3.948,0.626c5.553,0,10.432-3.55,12.141-8.835
			c2.162-6.685-1.525-13.896-8.218-16.075C222.211,251.433,220.89,251.225,219.556,251.225z M250.646,228.637
			c-7.038,0-12.763,5.726-12.763,12.764s5.726,12.764,12.763,12.764c7.038,0,12.764-5.726,12.764-12.764
			S257.684,228.637,250.646,228.637z"/>
		<path fill="#ED1F34" d="M25.807,154.839v232.258h658.064c7.128,0,12.903,5.777,12.903,12.903h25.807
			c0-7.126,5.775-12.903,12.903-12.903h38.709V154.839H25.807z M225.459,349.728c-13.45,7.564-28.736,11.563-44.203,11.563
			c-49.803,0-90.322-40.518-90.322-90.323s40.52-90.323,90.322-90.323c15.223,0,30.266,3.871,43.56,11.204
			c4.296,2.094,7.257,6.505,7.257,11.606c0,7.112-5.755,12.881-12.864,12.903c-0.211-0.003-0.466-0.003-0.698-0.016
			c-0.902-0.043-1.812-0.069-2.724-0.069c-30.159,0-54.696,24.537-54.696,54.696c0,30.157,24.537,54.694,54.696,54.694
			c0.912,0,1.822-0.026,2.724-0.069c6.025-0.294,11.37,3.568,13.023,9.318C233.19,340.661,230.675,346.796,225.459,349.728z
			 M232.652,268.226c-1.842,5.698-7.105,9.527-13.092,9.527c-1.449,0-2.882-0.227-4.258-0.676
			c-7.206-2.345-11.171-10.116-8.84-17.325c1.868-5.715,7.128-9.527,13.094-9.527c1.44,0,2.865,0.225,4.236,0.667
			C231.018,253.244,234.983,261.015,232.652,268.226z M242.567,308.625c-2.574,3.549-6.739,5.674-11.136,5.674
			c-2.921,0-5.714-0.905-8.079-2.62c-2.99-2.174-4.945-5.37-5.518-9.004c-0.571-3.636,0.308-7.274,2.476-10.249
			c2.567-3.534,6.73-5.655,11.121-5.655c2.926,0,5.726,0.91,8.095,2.632c2.962,2.148,4.92,5.338,5.497,8.97
			C245.602,302.008,244.729,305.646,242.567,308.625z M236.883,241.4c0-7.589,6.174-13.764,13.763-13.764
			s13.764,6.175,13.764,13.764s-6.175,13.764-13.764,13.764S236.883,248.991,236.883,241.4z M277.953,311.666
			c-2.379,1.726-5.171,2.631-8.093,2.631c-4.397,0-8.563-2.125-11.143-5.685c-2.146-2.935-3.028-6.579-2.455-10.219
			c0.574-3.64,2.534-6.838,5.517-9.001c2.354-1.711,5.153-2.62,8.079-2.62c4.391,0,8.554,2.122,11.135,5.674
			C285.45,298.593,284.083,307.21,277.953,311.666z M285.991,277.077c-1.378,0.447-2.812,0.676-4.26,0.676
			c-5.987,0-11.25-3.83-13.093-9.527c-1.13-3.457-0.843-7.19,0.824-10.471s4.513-5.715,8.012-6.854
			c1.394-0.451,2.818-0.676,4.258-0.676c5.97,0,11.228,3.813,13.082,9.486C297.161,266.961,293.196,274.732,285.991,277.077z"/>
		<path fill="#FFFFFF" d="M264.41,241.4c0-7.589-6.175-13.764-13.764-13.764s-13.763,6.175-13.763,13.764
			s6.174,13.764,13.763,13.764S264.41,248.991,264.41,241.4z"/>
		<path fill="#FFFFFF" d="M223.792,250.892c-1.371-0.442-2.796-0.667-4.236-0.667c-5.968,0-11.226,3.813-13.094,9.527
			c-2.331,7.209,1.633,14.982,8.84,17.325c1.376,0.447,2.809,0.676,4.258,0.676c5.987,0,11.25-3.83,13.092-9.527
			C234.983,261.015,231.018,253.244,223.792,250.892z"/>
		<path fill="#FFFFFF" d="M239.527,289.402c-2.369-1.722-5.168-2.632-8.095-2.632c-4.39,0-8.554,2.121-11.121,5.655
			c-2.169,2.975-3.047,6.613-2.476,10.249c0.573,3.635,2.527,6.83,5.517,9.004c2.366,1.715,5.158,2.62,8.079,2.62
			c4.397,0,8.563-2.125,11.136-5.674c2.163-2.976,3.035-6.617,2.457-10.25C244.447,294.741,242.488,291.551,239.527,289.402z"/>
		<path fill="#FFFFFF" d="M269.858,286.771c-2.926,0-5.726,0.91-8.079,2.62c-2.983,2.163-4.943,5.361-5.517,9.001
			c-0.573,3.641,0.31,7.284,2.455,10.219c2.581,3.56,6.746,5.685,11.143,5.685c2.921,0,5.713-0.905,8.093-2.631
			c6.13-4.456,7.498-13.075,3.042-19.222C278.412,288.891,274.249,286.771,269.858,286.771z"/>
		<path fill="#FFFFFF" d="M281.732,250.225c-1.44,0-2.864,0.225-4.258,0.676c-3.5,1.139-6.345,3.574-8.012,6.854
			s-1.955,7.014-0.824,10.471c1.843,5.698,7.105,9.527,13.093,9.527c1.448,0,2.881-0.227,4.26-0.676
			c7.205-2.345,11.169-10.116,8.824-17.366C292.96,254.037,287.702,250.225,281.732,250.225z"/>
	</g>
	<path fill="#FFFFFF" d="M735.484,412.903c-7.128,0-12.903-5.777-12.903-12.903h-25.807c0,7.126-5.775,12.903-12.903,12.903H25.807
		v232.258h748.387V412.903H735.484z"/>
	<path d="M787.097,129.032H12.903C5.775,129.032,0,134.81,0,141.936v516.129c0,7.126,5.775,12.903,12.903,12.903h774.193
		c7.128,0,12.903-5.777,12.903-12.903V141.936C800,134.81,794.225,129.032,787.097,129.032z M25.807,645.161V412.903h658.064
		c7.128,0,12.903-5.777,12.903-12.903s-5.775-12.903-12.903-12.903H25.807V154.839h748.387v232.258h-38.709
		c-7.128,0-12.903,5.777-12.903,12.903s5.775,12.903,12.903,12.903h38.709v232.258H25.807z"/>
	<path fill="#FFFFFF" d="M165.048,333.423c-18.151-14.771-29.764-37.282-29.764-62.453c0-25.172,11.615-47.684,29.764-62.455
		c-27.756,7.207-48.308,32.477-48.308,62.455C116.738,300.946,137.292,326.216,165.048,333.423z"/>
	<path d="M218.51,325.593c-0.902,0.043-1.812,0.069-2.724,0.069c-30.159,0-54.696-24.535-54.696-54.694s24.537-54.696,54.696-54.696
		c0.912,0,1.822,0.026,2.724,0.069c0.234,0.01,0.487,0.01,0.698,0.015c7.109-0.022,12.864-5.791,12.864-12.903
		c0-5.102-2.961-9.513-7.257-11.606c-13.295-7.331-28.339-11.203-43.56-11.203c-49.803,0-90.323,40.52-90.323,90.322
		c0,49.803,40.52,90.323,90.323,90.323c15.467,0,30.753-3.998,44.203-11.563c5.216-2.933,7.731-9.066,6.075-14.816
		C229.88,329.161,224.535,325.299,218.51,325.593z M165.048,208.513c-18.149,14.771-29.764,37.283-29.764,62.455
		c0,25.171,11.613,47.682,29.764,62.453c-27.756-7.207-48.308-32.475-48.308-62.453C116.738,240.989,137.292,215.72,165.048,208.513
		z"/>
</g>
</svg>
