<svg xmlns="http://www.w3.org/2000/svg" xmlns:xlink="http://www.w3.org/1999/xlink" viewBox="0 0 197 312.24"><defs><style>.cls-1{isolation:isolate;}.cls-2{fill:#2e3192;}.cls-3{stroke:#000;stroke-miterlimit:10;stroke-width:2px;fill:url(#radial-gradient);}.cls-4{mix-blend-mode:overlay;fill:url(#linear-gradient);}</style><radialGradient id="radial-gradient" cx="98.5" cy="156.06" r="129.59" gradientUnits="userSpaceOnUse"><stop offset="0" stop-color="#0071bc"/><stop offset="0.64" stop-color="#20459f"/><stop offset="1" stop-color="#2e3192"/></radialGradient><linearGradient id="linear-gradient" x1="44.88" y1="188.77" x2="172.72" y2="137.12" gradientUnits="userSpaceOnUse"><stop offset="0"/><stop offset="1" stop-opacity="0"/></linearGradient></defs><title>Asset 1</title><g class="cls-1"><g id="Layer_2" data-name="Layer 2"><g id="Layer_1-2" data-name="Layer 1"><path class="cls-2" d="M77.55,209.07a4.92,4.92,0,1,0,5,4.92A5,5,0,0,0,77.55,209.07Z"/><ellipse class="cls-2" cx="99.75" cy="213.99" rx="5.05" ry="4.92"/><path class="cls-2" d="M122,209.07a4.92,4.92,0,1,0,5,4.92A5,5,0,0,0,122,209.07Z"/><path class="cls-3" d="M1,213.74a97.49,97.49,0,1,0,50-85.15V85.74A97.46,97.46,0,0,0,1.5.87m97,261.37H42.66l17.38-19h0a48.5,48.5,0,1,1,38.46,19Z"/><path class="cls-4" d="M98.5,116.24A97,97,0,0,0,51,128.59V203.9h0a48.5,48.5,0,0,1,95.41,2.39c14.3-6.57,28.57-13.47,44.59-18l1-.4V186A97.55,97.55,0,0,0,98.5,116.24Z"/></g></g></g></svg>