<svg xmlns="http://www.w3.org/2000/svg" xmlns:xlink="http://www.w3.org/1999/xlink" width="233.03" height="257.908" viewBox="0 0 233.03 257.908"><defs><style>.a,.f,.h{fill:#fff;}.a{stroke:rgba(0,0,0,0.15);}.b,.f{opacity:0.2;}.b{clip-path:url(#a);}.c{fill:#ec9047;}.d{fill:#bc6a33;}.e{fill:#d37b40;}.g{fill:#096dd9;}.i{opacity:0.16;}</style><clipPath id="a"><rect class="a" width="233.03" height="257.909"/></clipPath></defs><g class="b" transform="translate(0 0)"><g transform="translate(258.137 -48.928) rotate(45)"><circle class="c" cx="77.577" cy="77.577" r="77.577" transform="translate(22.38 209.882)"/><circle class="d" cx="63.432" cy="63.432" r="63.432" transform="translate(36.526 224.027)"/><circle class="e" cx="56.656" cy="56.656" r="56.656" transform="translate(43.302 230.803)"/><path class="c" d="M16.149,32.3A16.149,16.149,0,1,0,0,16.149,16.149,16.149,0,0,0,16.149,32.3Zm0-24.062a7.852,7.852,0,1,0,0,.074Z" transform="translate(83.809 185.325)"/><path class="f" d="M64.634,25.521A16.124,16.124,0,0,1,77.691,0V8.161a7.889,7.889,0,0,0,0,15.778V179.588A77.577,77.577,0,0,1,64.634,25.521Z" transform="translate(22.267 185.473)"/><path class="g" d="M0,168.657H26.955L86.48,0H59.525Z" transform="translate(113.633 0)"/><path class="g" d="M0,168.657H26.955L86.48,0H59.525Z" transform="translate(59.722 0)"/><path class="h" d="M0,168.657H26.955L86.48,0H59.525Z" transform="translate(86.678 0)"/><path class="i" d="M113.435,0H59.525L0,168.657H80.866L140.391,0Z" transform="translate(59.722 0)"/><path class="c" d="M0,0V15.234a4.946,4.946,0,0,0,9.892,0V0Z" transform="translate(95.086 178.722)"/><path class="c" d="M112.4,18.4H9.2A9.2,9.2,0,1,1,9.2,0H112.4a9.2,9.2,0,0,1,0,18.4ZM9.2,5.564a3.635,3.635,0,0,0,0,7.271H112.4a3.635,3.635,0,0,0,0-7.271Z" transform="translate(39.172 163.093)"/><path class="g" d="M86.48,168.657H59.525L0,0H26.955Z" transform="translate(0 0)"/><path class="g" d="M86.48,168.657H59.525L0,0H26.955Z" transform="translate(53.911 0)"/><path class="h" d="M86.48,168.657H59.525L0,0H26.955Z" transform="translate(26.955 0)"/></g></g></svg>