<svg xmlns="http://www.w3.org/2000/svg" width="88.003" height="160.188" viewBox="0 0 88.003 160.188">
  <g id="Bronze_icon" data-name="Bronze icon" transform="translate(0)">
    <g id="Layer_1" data-name="Layer 1">
      <ellipse id="Ellipse_522" data-name="Ellipse 522" cx="34.137" cy="34.041" rx="34.137" ry="34.041" transform="translate(9.821 92.096)" fill="#ec9047"/>
      <ellipse id="Ellipse_523" data-name="Ellipse 523" cx="27.93" cy="27.834" rx="27.93" ry="27.834" transform="translate(16.028 98.303)" fill="#bc6a33"/>
      <ellipse id="Ellipse_524" data-name="Ellipse 524" cx="24.957" cy="24.861" rx="24.957" ry="24.861" transform="translate(19.001 101.276)" fill="#d37b40"/>
      <path id="Path_1910" data-name="Path 1910" d="M40.976,89.112a7.086,7.086,0,1,0-7.086-7.086,7.086,7.086,0,0,0,7.086,7.086Zm0-10.558a3.445,3.445,0,1,0,0,.033Z" transform="translate(2.982 6.38)" fill="#ec9047"/>
      <path id="Path_1911" data-name="Path 1911" d="M37.365,86.2A7.075,7.075,0,0,1,43.095,75v3.581a3.462,3.462,0,0,0,0,6.923v68.3a34.041,34.041,0,0,1-5.73-67.6Z" transform="translate(0.767 6.386)" fill="#fff" opacity="0.2"/>
      <path id="Path_1912" data-name="Path 1912" d="M45.95,74.007H57.778L83.9,0H72.069Z" transform="translate(4.105)" fill="#096dd9"/>
      <path id="Path_1913" data-name="Path 1913" d="M24.15,74.007H35.978L62.1,0H50.269Z" transform="translate(2.157)" fill="#096dd9"/>
      <path id="Path_1914" data-name="Path 1914" d="M35.05,74.007H46.878L73,0H61.169Z" transform="translate(3.177)" fill="#fff"/>
      <path id="Path_1915" data-name="Path 1915" d="M73.925,0H50.269L24.15,74.007H59.634L85.753,0Z" transform="translate(2.249)" opacity="0.16"/>
      <path id="Path_1916" data-name="Path 1916" d="M38.45,72.27v6.684a2.17,2.17,0,0,0,4.341,0V72.27Z" transform="translate(3.37 6.153)" fill="#ec9047"/>
      <path id="Path_1917" data-name="Path 1917" d="M65.338,74.023H19.891a4.037,4.037,0,1,1,0-8.073H65.338a4.037,4.037,0,1,1,0,8.073ZM19.891,68.392a1.6,1.6,0,1,0,0,3.19H65.338a1.6,1.6,0,1,0,0-3.19Z" transform="translate(1.349 5.615)" fill="#ec9047"/>
      <path id="Path_1918" data-name="Path 1918" d="M37.947,74.007H26.119L0,0H11.828Z" fill="#096dd9"/>
      <path id="Path_1919" data-name="Path 1919" d="M59.747,74.007H47.919L21.8,0H33.628Z" transform="translate(1.948)" fill="#096dd9"/>
      <path id="Path_1920" data-name="Path 1920" d="M48.847,74.007H37.019L10.9,0H22.728Z" transform="translate(0.928)" fill="#fff"/>
    </g>
  </g>
</svg>
