<svg xmlns="http://www.w3.org/2000/svg" xmlns:xlink="http://www.w3.org/1999/xlink" width="77.791" height="15" viewBox="0 0 77.791 15"><defs><style>.a{clip-path:url(#a);}.b{fill:#4967a9;}</style><clipPath id="a"><rect width="77.791" height="15"/></clipPath></defs><g transform="translate(0 0)"><g class="a"><path class="b" d="M6.047,2.326c-.93,0-1.163.465-1.163,1.279V5.116H7.326L7.093,7.558H4.884v7.326H1.977V7.558H0V5.116H1.977v-1.4C1.977,1.279,2.907,0,5.7,0A6.653,6.653,0,0,1,7.326.116V2.326"/></g><g class="a"><path class="b" d="M6.5,8.967C6.5,6.293,7.779,4.2,10.453,4.2a2.762,2.762,0,0,1,2.791,1.744V4.433h2.791v9.651H13.244V12.572A2.842,2.842,0,0,1,10.453,14.2C7.779,14.2,6.5,12.223,6.5,9.433m2.907.233c0,1.4.581,2.442,1.86,2.442,1.163,0,1.86-.93,1.86-2.209V8.851c0-1.4-.581-2.209-1.86-2.209-1.279-.116-1.86.93-1.86,2.326Z" transform="translate(1.058 0.684)"/></g><g class="a"><path class="b" d="M20.7,4.3a4.707,4.707,0,0,1,2.791.7l-.7,2.093a4.5,4.5,0,0,0-1.977-.465c-1.628,0-2.326.93-2.326,2.442v.581c0,1.512.7,2.442,2.326,2.442a4.5,4.5,0,0,0,1.977-.465l.7,2.093a4.707,4.707,0,0,1-2.791.7c-3.488,0-5-1.86-5-4.767V9.067c0-3.023,1.512-4.767,5-4.767" transform="translate(2.556 0.7)"/></g><g class="a"><path class="b" d="M22.7,9.649V8.835c0-2.791,1.512-4.535,4.767-4.535,3.023,0,4.3,1.86,4.3,4.535v1.512H25.607c.116,1.279.7,1.86,2.326,1.86a9.4,9.4,0,0,0,3.14-.581l.581,1.977a10.6,10.6,0,0,1-3.721.7C24.1,14.3,22.7,12.556,22.7,9.649M25.607,8.37H29.1V8.137c0-1.047-.465-1.86-1.744-1.86-1.163,0-1.744.814-1.744,2.093" transform="translate(3.695 0.7)"/></g><g class="a"><path class="b" d="M41.251,10.349c0,2.674-1.279,4.767-3.953,4.767a3.02,3.02,0,0,1-2.907-1.628V15H31.6V.233L34.507,0V6.512A3.03,3.03,0,0,1,37.181,5c2.674,0,3.953,1.977,3.953,4.767m-2.791-.116c0-1.4-.581-2.326-1.977-2.326-1.163,0-1.86.814-1.86,2.209v.93c0,1.4.7,2.209,1.86,2.209,1.4,0,1.977-1.047,1.977-2.326Z" transform="translate(5.144)"/></g><g class="a"><path class="b" d="M40.7,9.533V9.067A4.4,4.4,0,0,1,45.467,4.3c3.256,0,4.884,1.977,4.884,4.767v.465A4.4,4.4,0,0,1,45.584,14.3c-3.256,0-4.884-1.977-4.884-4.767m6.744-.7c0-1.279-.581-2.326-1.86-2.326-1.4,0-1.86,1.047-1.86,2.326v.93c0,1.279.581,2.326,1.86,2.326,1.4,0,1.86-1.047,1.86-2.326Z" transform="translate(6.626 0.7)"/></g><g class="a"><path class="b" d="M49.8,9.533V9.067A4.4,4.4,0,0,1,54.567,4.3c3.256,0,4.767,1.977,4.767,4.767v.465A4.4,4.4,0,0,1,54.567,14.3,4.4,4.4,0,0,1,49.8,9.533m6.744-.7c0-1.279-.581-2.326-1.86-2.326-1.4,0-1.86,1.047-1.86,2.326v.93c0,1.279.581,2.326,1.86,2.326,1.4,0,1.86-1.047,1.86-2.326Z" transform="translate(8.107 0.7)"/></g><g class="a"><path class="b" d="M62.007,9.767l2.907-4.651h3.14l-3.14,4.767,3.256,5H65.03l-3.023-4.767v4.767H59.1V.233L62.007,0" transform="translate(9.621)"/></g></g></svg>