<svg xmlns="http://www.w3.org/2000/svg" xmlns:xlink="http://www.w3.org/1999/xlink" width="234.314" height="259.33" viewBox="0 0 234.314 259.33"><defs><style>.a,.f,.h{fill:#fff;}.a{stroke:rgba(0,0,0,0.15);}.b,.f{opacity:0.2;}.b{clip-path:url(#a);}.c{fill:#fcd26d;}.d{fill:#ce9f41;}.e{fill:#e5b64e;}.g{fill:#096dd9;}.i{opacity:0.16;}</style><clipPath id="a"><rect class="a" width="234.314" height="259.33"/></clipPath></defs><g class="b" transform="translate(0 0.001)"><g transform="translate(257.752 -50.865) rotate(45)"><g transform="translate(0 0)"><ellipse class="c" cx="77.592" cy="78.748" rx="77.592" ry="78.748" transform="translate(22.718 209.355)"/><ellipse class="d" cx="63.233" cy="64.389" rx="63.233" ry="64.389" transform="translate(37.077 223.714)"/><ellipse class="e" cx="56.355" cy="57.511" rx="56.355" ry="57.511" transform="translate(43.955 230.592)"/><path class="c" d="M16.392,32.784A16.392,16.392,0,1,0,0,16.392,16.392,16.392,0,0,0,16.392,32.784Zm0-24.425a7.97,7.97,0,1,0,0,.075Z" transform="translate(83.919 186.064)"/><path class="f" d="M65.609,25.906A16.367,16.367,0,0,1,78.863,0V8.284a8.008,8.008,0,0,0,0,16.016v158A78.748,78.748,0,0,1,65.609,25.906Z" transform="translate(22.603 184.578)"/><path class="g" d="M0,171.2H27.362L87.785,0H60.423Z" transform="translate(113.037 0)"/><path class="g" d="M0,171.2H27.362L87.785,0H60.423Z" transform="translate(59.409 0)"/><path class="h" d="M0,171.2H27.362L87.785,0H60.423Z" transform="translate(85.674 0)"/><path class="i" d="M115.147,0H60.423L0,171.2H82.086L142.509,0Z" transform="translate(58.312 0)"/><path class="c" d="M0,0V15.463a5.021,5.021,0,1,0,10.041,0V0Z" transform="translate(95.365 179.505)"/><path class="c" d="M111.956,18.677H9.163A9.252,9.252,0,0,1,0,9.338,9.252,9.252,0,0,1,9.163,0H111.956a9.252,9.252,0,0,1,9.163,9.338,9.252,9.252,0,0,1-9.163,9.338ZM9.163,5.648a3.691,3.691,0,0,0,0,7.38H111.956a3.691,3.691,0,0,0,0-7.38Z" transform="translate(39.763 163.816)"/><path class="g" d="M87.785,171.2H60.423L0,0H27.362Z" transform="translate(0 0)"/><path class="g" d="M87.785,171.2H60.423L0,0H27.362Z" transform="translate(53.628 0)"/><path class="h" d="M87.785,171.2H60.423L0,0H27.362Z" transform="translate(27.362 0)"/></g></g></g></svg>