<svg xmlns="http://www.w3.org/2000/svg" width="88.005" height="161.791" viewBox="0 0 88.005 161.791">
  <g id="Gold_icon" data-name="Gold icon" transform="translate(0 0)">
    <g id="Layer_1" data-name="Layer 1">
      <ellipse id="Ellipse_528" data-name="Ellipse 528" cx="34.039" cy="34.384" rx="34.039" ry="34.384" transform="translate(9.92 93.012)" fill="#fcd26d"/>
      <ellipse id="Ellipse_529" data-name="Ellipse 529" cx="27.769" cy="28.114" rx="27.769" ry="28.114" transform="translate(16.189 99.281)" fill="#ce9f41"/>
      <ellipse id="Ellipse_530" data-name="Ellipse 530" cx="24.766" cy="25.111" rx="24.766" ry="25.111" transform="translate(19.192 102.285)" fill="#e5b64e"/>
      <path id="Path_1932" data-name="Path 1932" d="M41.047,89.255A7.157,7.157,0,1,0,33.89,82.1a7.157,7.157,0,0,0,7.157,7.157Zm0-10.665a3.48,3.48,0,1,0,0,.033Z" transform="translate(2.912 7.193)" fill="#fcd26d"/>
      <path id="Path_1933" data-name="Path 1933" d="M37.651,86.312A7.146,7.146,0,0,1,43.438,75v3.617a3.5,3.5,0,1,0,0,6.993V154.6a34.384,34.384,0,0,1-5.787-68.286Z" transform="translate(0.865 7.193)" fill="#fff" opacity="0.2"/>
      <path id="Path_1934" data-name="Path 1934" d="M45.95,74.753H57.9L84.28,0H72.333Z" transform="translate(3.725)" fill="#096dd9"/>
      <path id="Path_1935" data-name="Path 1935" d="M24.15,74.753H36.1L62.48,0H50.533Z" transform="translate(1.958)" fill="#096dd9"/>
      <path id="Path_1936" data-name="Path 1936" d="M35.05,74.753H47L73.38,0H61.433Z" transform="translate(2.678)" fill="#fff"/>
      <path id="Path_1937" data-name="Path 1937" d="M74.427,0H50.533L24.15,74.753H59.992L86.374,0Z" transform="translate(1.63)" opacity="0.16"/>
      <path id="Path_1938" data-name="Path 1938" d="M38.45,72.27v6.752a2.192,2.192,0,1,0,4.384,0V72.27Z" transform="translate(3.349 6.937)" fill="#fcd26d"/>
      <path id="Path_1939" data-name="Path 1939" d="M65.019,74.1H19.865a4.078,4.078,0,0,1,0-8.155H65.019a4.078,4.078,0,0,1,0,8.155ZM19.865,68.416a1.611,1.611,0,0,0,0,3.222H65.019a1.611,1.611,0,0,0,0-3.222Z" transform="translate(1.522 6.331)" fill="#fcd26d"/>
      <path id="Path_1940" data-name="Path 1940" d="M38.33,74.753H26.383L0,0H11.947Z" fill="#096dd9"/>
      <path id="Path_1941" data-name="Path 1941" d="M60.13,74.753H48.183L21.8,0H33.747Z" transform="translate(1.767)" fill="#096dd9"/>
      <path id="Path_1942" data-name="Path 1942" d="M49.23,74.753H37.283L10.9,0H22.847Z" transform="translate(1.047)" fill="#fff"/>
    </g>
  </g>
</svg>
