<svg xmlns="http://www.w3.org/2000/svg" width="88.026" height="160.813" viewBox="0 0 88.026 160.813">
  <g id="Gold_icon" data-name="Gold icon" transform="translate(-0.001 0)">
    <g id="Layer_1" data-name="Layer 1">
      <ellipse id="Ellipse_528" data-name="Ellipse 528" cx="34.011" cy="34.517" rx="34.011" ry="34.517" transform="translate(9.958 91.767)" fill="#fcd26d"/>
      <ellipse id="Ellipse_529" data-name="Ellipse 529" cx="27.717" cy="28.224" rx="27.717" ry="28.224" transform="translate(16.252 98.06)" fill="#ce9f41"/>
      <ellipse id="Ellipse_530" data-name="Ellipse 530" cx="24.702" cy="25.209" rx="24.702" ry="25.209" transform="translate(19.267 101.075)" fill="#e5b64e"/>
      <path id="Path_1932" data-name="Path 1932" d="M41.075,89.31a7.185,7.185,0,1,0-7.185-7.185,7.185,7.185,0,0,0,7.185,7.185Zm0-10.706a3.494,3.494,0,1,0,0,.033Z" transform="translate(2.894 6.617)" fill="#fcd26d"/>
      <path id="Path_1933" data-name="Path 1933" d="M37.762,86.355A7.174,7.174,0,0,1,43.572,75v3.631a3.51,3.51,0,0,0,0,7.02v69.255a34.518,34.518,0,0,1-5.81-68.551Z" transform="translate(0.903 5.906)" fill="#fff" opacity="0.2"/>
      <path id="Path_1934" data-name="Path 1934" d="M45.95,75.043H57.944L84.429,0H72.435Z" transform="translate(3.597)" fill="#096dd9"/>
      <path id="Path_1935" data-name="Path 1935" d="M24.15,75.043H36.144L62.629,0H50.635Z" transform="translate(1.891)" fill="#096dd9"/>
      <path id="Path_1936" data-name="Path 1936" d="M35.05,75.043H47.044L73.529,0H61.535Z" transform="translate(2.504)" fill="#fff"/>
      <path id="Path_1937" data-name="Path 1937" d="M74.622,0H50.635L24.15,75.043H60.131L86.616,0Z" transform="translate(1.41)" opacity="0.16"/>
      <path id="Path_1938" data-name="Path 1938" d="M38.45,72.27v6.778a2.2,2.2,0,1,0,4.4,0V72.27Z" transform="translate(3.351 6.412)" fill="#fcd26d"/>
      <path id="Path_1939" data-name="Path 1939" d="M64.914,74.137H19.857a4.094,4.094,0,0,1,0-8.187H64.914a4.094,4.094,0,0,1,0,8.187ZM19.857,68.426a1.618,1.618,0,0,0,0,3.235H64.914a1.618,1.618,0,0,0,0-3.235Z" transform="translate(1.589 5.855)" fill="#fcd26d"/>
      <path id="Path_1940" data-name="Path 1940" d="M38.479,75.043H26.485L0,0H11.994Z" fill="#096dd9"/>
      <path id="Path_1941" data-name="Path 1941" d="M60.279,75.043H48.285L21.8,0H33.794Z" transform="translate(1.707)" fill="#096dd9"/>
      <path id="Path_1942" data-name="Path 1942" d="M49.379,75.043H37.385L10.9,0H22.894Z" transform="translate(1.094)" fill="#fff"/>
    </g>
  </g>
</svg>
