<svg xmlns="http://www.w3.org/2000/svg" xmlns:xlink="http://www.w3.org/1999/xlink" viewBox="0 0 111.618 49.511">
  <defs>
    <style>
      .cls-1 {
        opacity: 0.252;
        fill: url(#linear-gradient);
      }

      .cls-2 {
        fill: none;
        stroke: #fff;
        stroke-width: 2px;
      }
    </style>
    <linearGradient id="linear-gradient" x1="0.5" y1="-0.121" x2="0.5" y2="1" gradientUnits="objectBoundingBox">
      <stop offset="0" stop-color="#fff"/>
      <stop offset="1" stop-color="#21ce99" stop-opacity="0"/>
    </linearGradient>
  </defs>
  <g id="Graph_-_Green_in_card_" data-name="Graph - Green (in card)" transform="translate(-9.313 -382.622)">
    <path id="Path_71" data-name="Path 71" class="cls-1" d="M0,6.747,3.195,4.111l3.114-.079L9.625,0,12.75,1.521l3.414.681L19.292.121l3.3,4.836,6.5-3.353,3.284,2.685,3.265,7.959,3.209-6.06,6.42,3.552,3.382-2.184,3.179.294L55.1,6.786l3.28,14L61.5,22.5l3.251,1.114,3.391-3.448,3.131,1.283,6.618-5.444,3.12-1.682,3.408,1.682,3.03-.779,3.334.711h3.361l3.174-4.067,3.2-7.5,4.285,9.951,5.561-3.651-.046,37.1H0Z" transform="translate(10 384.358)"/>
    <path id="Path_70" data-name="Path 70" class="cls-2" d="M329.622-13.436l3.248-3.409h3.1l3.248-4.8,3.248,1.826,3.248.724,3.248-2.55,3.248,5.844,3.248-1.838,3.248-2.18,3.248,3.278L365.2-6.953l3.248-7.427,3.248,2.127,3.248,2.363,3.248-2.863,3.248.5,3.248-1.458,3.248,16.858,3.248,1.988,3.248,1.49,3.248-4.447,3.248,1.8L404.181.553l3.248-3.174,3.248-2.051,3.248,2.051,3.248-.888,3.248.888h3.248l3.248-4.887,3.248-9.036,4.051,11.872,2.691-1.838,3-2.278" transform="translate(-319.586 405.781)"/>
  </g>
</svg>
