<svg xmlns="http://www.w3.org/2000/svg" xmlns:xlink="http://www.w3.org/1999/xlink" width="380" height="200" viewBox="0 0 380 200"><defs><style>.a{fill:#fff;stroke:rgba(0,0,0,0.15);}.b{opacity:0.44;clip-path:url(#a);}.c{fill:none;stroke:#096dd9;stroke-width:1.5px;}.d{opacity:0.2;}.e{fill:#096dd9;}</style><clipPath id="a"><rect class="a" width="380" height="200" transform="translate(856 878)"/></clipPath></defs><g class="b" transform="translate(-856 -878)"><g transform="translate(1011.25 863.59)"><path class="c" d="M223.207,190.85v14.269L250,178.327V164.058Z" transform="translate(-54.698 -26.275)"/><g transform="translate(52.131 126.703)"><path class="c" d="M145.991,215.85H80.624l65.367-65.367Z" transform="translate(-80.624 -150.483)"/></g><g transform="translate(169.796 75.305)"><path class="c" d="M224.785,87.511h45.9l-45.9,45.9Z" transform="translate(-224.785 -87.511)"/></g><g class="d" transform="translate(187.836 122.053)"><circle class="e" cx="0.715" cy="0.715" r="0.715" transform="translate(71.994)"/><path class="e" d="M331.163,150.857a.715.715,0,1,0-.715-.714A.714.714,0,0,0,331.163,150.857Z" transform="translate(-262.244 -145.639)"/><path class="e" d="M335.8,150.857a.715.715,0,1,0-.715-.714A.714.714,0,0,0,335.8,150.857Z" transform="translate(-263.097 -145.639)"/><path class="e" d="M326.52,155.5a.714.714,0,1,0-.714-.714A.715.715,0,0,0,326.52,155.5Z" transform="translate(-261.39 -146.492)"/><path class="e" d="M331.163,155.5a.714.714,0,1,0-.715-.714A.714.714,0,0,0,331.163,155.5Z" transform="translate(-262.244 -146.492)"/><path class="e" d="M335.8,155.5a.714.714,0,1,0-.715-.714A.714.714,0,0,0,335.8,155.5Z" transform="translate(-263.097 -146.492)"/><path class="e" d="M321.878,160.142a.715.715,0,1,0-.715-.715A.715.715,0,0,0,321.878,160.142Z" transform="translate(-260.537 -147.345)"/><circle class="e" cx="0.715" cy="0.715" r="0.715" transform="translate(64.415 11.367)"/><path class="e" d="M331.163,160.142a.715.715,0,1,0-.715-.715A.715.715,0,0,0,331.163,160.142Z" transform="translate(-262.244 -147.345)"/><circle class="e" cx="0.715" cy="0.715" r="0.715" transform="translate(71.994 11.367)"/><path class="e" d="M317.235,164.784a.715.715,0,1,0-.714-.714A.715.715,0,0,0,317.235,164.784Z" transform="translate(-259.684 -148.199)"/><path class="e" d="M321.878,164.784a.715.715,0,1,0-.715-.714A.714.714,0,0,0,321.878,164.784Z" transform="translate(-260.537 -148.199)"/><path class="e" d="M326.52,164.784a.715.715,0,1,0-.714-.714A.715.715,0,0,0,326.52,164.784Z" transform="translate(-261.39 -148.199)"/><path class="e" d="M331.163,164.784a.715.715,0,1,0-.715-.714A.714.714,0,0,0,331.163,164.784Z" transform="translate(-262.244 -148.199)"/><path class="e" d="M335.8,164.784a.715.715,0,1,0-.715-.714A.714.714,0,0,0,335.8,164.784Z" transform="translate(-263.097 -148.199)"/><circle class="e" cx="0.715" cy="0.715" r="0.715" transform="translate(53.048 18.946)"/><path class="e" d="M317.235,169.426a.714.714,0,1,0-.714-.714A.715.715,0,0,0,317.235,169.426Z" transform="translate(-259.684 -149.052)"/><path class="e" d="M321.878,169.426a.714.714,0,1,0-.715-.714A.714.714,0,0,0,321.878,169.426Z" transform="translate(-260.537 -149.052)"/><circle class="e" cx="0.715" cy="0.715" r="0.715" transform="translate(64.415 18.946)"/><path class="e" d="M331.163,169.426a.714.714,0,1,0-.715-.714A.714.714,0,0,0,331.163,169.426Z" transform="translate(-262.244 -149.052)"/><circle class="e" cx="0.715" cy="0.715" r="0.715" transform="translate(71.994 18.946)"/><path class="e" d="M307.951,174.069a.715.715,0,1,0-.715-.715A.715.715,0,0,0,307.951,174.069Z" transform="translate(-257.978 -149.905)"/><path class="e" d="M312.593,174.069a.715.715,0,1,0-.714-.715A.715.715,0,0,0,312.593,174.069Z" transform="translate(-258.831 -149.905)"/><path class="e" d="M317.235,174.069a.715.715,0,1,0-.714-.715A.715.715,0,0,0,317.235,174.069Z" transform="translate(-259.684 -149.905)"/><path class="e" d="M321.878,174.069a.715.715,0,1,0-.715-.715A.715.715,0,0,0,321.878,174.069Z" transform="translate(-260.537 -149.905)"/><path class="e" d="M326.52,174.069a.715.715,0,1,0-.714-.715A.715.715,0,0,0,326.52,174.069Z" transform="translate(-261.39 -149.905)"/><path class="e" d="M331.163,174.069a.715.715,0,1,0-.715-.715A.715.715,0,0,0,331.163,174.069Z" transform="translate(-262.244 -149.905)"/><path class="e" d="M335.8,174.069a.715.715,0,1,0-.715-.715A.715.715,0,0,0,335.8,174.069Z" transform="translate(-263.097 -149.905)"/><path class="e" d="M303.308,178.711a.715.715,0,1,0-.714-.714A.715.715,0,0,0,303.308,178.711Z" transform="translate(-257.124 -150.758)"/><path class="e" d="M307.951,178.711a.715.715,0,1,0-.715-.714A.714.714,0,0,0,307.951,178.711Z" transform="translate(-257.978 -150.758)"/><path class="e" d="M312.593,178.711a.715.715,0,1,0-.714-.714A.714.714,0,0,0,312.593,178.711Z" transform="translate(-258.831 -150.758)"/><path class="e" d="M317.235,178.711a.715.715,0,1,0-.714-.714A.715.715,0,0,0,317.235,178.711Z" transform="translate(-259.684 -150.758)"/><path class="e" d="M321.878,178.711a.715.715,0,1,0-.715-.714A.714.714,0,0,0,321.878,178.711Z" transform="translate(-260.537 -150.758)"/><path class="e" d="M326.52,178.711a.715.715,0,1,0-.714-.714A.715.715,0,0,0,326.52,178.711Z" transform="translate(-261.39 -150.758)"/><path class="e" d="M331.163,178.711a.715.715,0,1,0-.715-.714A.714.714,0,0,0,331.163,178.711Z" transform="translate(-262.244 -150.758)"/><path class="e" d="M335.8,178.711a.715.715,0,1,0-.715-.714A.714.714,0,0,0,335.8,178.711Z" transform="translate(-263.097 -150.758)"/><path class="e" d="M298.666,183.353a.714.714,0,1,0-.714-.714A.714.714,0,0,0,298.666,183.353Z" transform="translate(-256.271 -151.611)"/><circle class="e" cx="0.715" cy="0.715" r="0.715" transform="translate(45.47 30.313)"/><path class="e" d="M307.951,183.353a.714.714,0,1,0-.715-.714A.714.714,0,0,0,307.951,183.353Z" transform="translate(-257.978 -151.611)"/><circle class="e" cx="0.715" cy="0.715" r="0.715" transform="translate(53.048 30.313)"/><path class="e" d="M317.235,183.353a.714.714,0,1,0-.714-.714A.714.714,0,0,0,317.235,183.353Z" transform="translate(-259.684 -151.611)"/><path class="e" d="M321.878,183.353a.714.714,0,1,0-.715-.714A.714.714,0,0,0,321.878,183.353Z" transform="translate(-260.537 -151.611)"/><circle class="e" cx="0.715" cy="0.715" r="0.715" transform="translate(64.415 30.313)"/><path class="e" d="M331.163,183.353a.714.714,0,1,0-.715-.714A.714.714,0,0,0,331.163,183.353Z" transform="translate(-262.244 -151.611)"/><circle class="e" cx="0.715" cy="0.715" r="0.715" transform="translate(71.994 30.313)"/><path class="e" d="M294.024,188a.715.715,0,1,0-.715-.715A.715.715,0,0,0,294.024,188Z" transform="translate(-255.418 -152.465)"/><path class="e" d="M298.666,188a.715.715,0,1,0-.714-.715A.715.715,0,0,0,298.666,188Z" transform="translate(-256.271 -152.465)"/><path class="e" d="M303.308,188a.715.715,0,1,0-.714-.715A.715.715,0,0,0,303.308,188Z" transform="translate(-257.124 -152.465)"/><path class="e" d="M307.951,188a.715.715,0,1,0-.715-.715A.715.715,0,0,0,307.951,188Z" transform="translate(-257.978 -152.465)"/><path class="e" d="M312.593,188a.715.715,0,1,0-.714-.715A.715.715,0,0,0,312.593,188Z" transform="translate(-258.831 -152.465)"/><path class="e" d="M317.235,188a.715.715,0,1,0-.714-.715A.715.715,0,0,0,317.235,188Z" transform="translate(-259.684 -152.465)"/><path class="e" d="M321.878,188a.715.715,0,1,0-.715-.715A.715.715,0,0,0,321.878,188Z" transform="translate(-260.537 -152.465)"/><path class="e" d="M326.52,188a.715.715,0,1,0-.714-.715A.715.715,0,0,0,326.52,188Z" transform="translate(-261.39 -152.465)"/><path class="e" d="M331.163,188a.715.715,0,1,0-.715-.715A.715.715,0,0,0,331.163,188Z" transform="translate(-262.244 -152.465)"/><path class="e" d="M335.8,188a.715.715,0,1,0-.715-.715A.715.715,0,0,0,335.8,188Z" transform="translate(-263.097 -152.465)"/><circle class="e" cx="0.715" cy="0.715" r="0.715" transform="translate(34.102 37.892)"/><path class="e" d="M294.024,192.638a.715.715,0,1,0-.715-.714A.714.714,0,0,0,294.024,192.638Z" transform="translate(-255.418 -153.318)"/><path class="e" d="M298.666,192.638a.715.715,0,1,0-.714-.714A.715.715,0,0,0,298.666,192.638Z" transform="translate(-256.271 -153.318)"/><circle class="e" cx="0.715" cy="0.715" r="0.715" transform="translate(45.47 37.892)"/><path class="e" d="M307.951,192.638a.715.715,0,1,0-.715-.714A.714.714,0,0,0,307.951,192.638Z" transform="translate(-257.978 -153.318)"/><circle class="e" cx="0.715" cy="0.715" r="0.715" transform="translate(53.048 37.892)"/><path class="e" d="M317.235,192.638a.715.715,0,1,0-.714-.714A.715.715,0,0,0,317.235,192.638Z" transform="translate(-259.684 -153.318)"/><path class="e" d="M321.878,192.638a.715.715,0,1,0-.715-.714A.714.714,0,0,0,321.878,192.638Z" transform="translate(-260.537 -153.318)"/><circle class="e" cx="0.715" cy="0.715" r="0.715" transform="translate(64.415 37.892)"/><path class="e" d="M331.163,192.638a.715.715,0,1,0-.715-.714A.714.714,0,0,0,331.163,192.638Z" transform="translate(-262.244 -153.318)"/><circle class="e" cx="0.715" cy="0.715" r="0.715" transform="translate(71.994 37.892)"/><path class="e" d="M284.739,197.281a.715.715,0,1,0-.715-.715A.715.715,0,0,0,284.739,197.281Z" transform="translate(-253.711 -154.171)"/><circle class="e" cx="0.715" cy="0.715" r="0.715" transform="translate(34.102 41.681)"/><path class="e" d="M294.024,197.281a.715.715,0,1,0-.715-.715A.715.715,0,0,0,294.024,197.281Z" transform="translate(-255.418 -154.171)"/><path class="e" d="M298.666,197.281a.715.715,0,1,0-.714-.715A.715.715,0,0,0,298.666,197.281Z" transform="translate(-256.271 -154.171)"/><circle class="e" cx="0.715" cy="0.715" r="0.715" transform="translate(45.47 41.681)"/><path class="e" d="M307.951,197.281a.715.715,0,1,0-.715-.715A.715.715,0,0,0,307.951,197.281Z" transform="translate(-257.978 -154.171)"/><circle class="e" cx="0.715" cy="0.715" r="0.715" transform="translate(53.048 41.681)"/><path class="e" d="M317.235,197.281a.715.715,0,1,0-.714-.715A.715.715,0,0,0,317.235,197.281Z" transform="translate(-259.684 -154.171)"/><path class="e" d="M321.878,197.281a.715.715,0,1,0-.715-.715A.715.715,0,0,0,321.878,197.281Z" transform="translate(-260.537 -154.171)"/><circle class="e" cx="0.715" cy="0.715" r="0.715" transform="translate(64.415 41.681)"/><path class="e" d="M331.163,197.281a.715.715,0,1,0-.715-.715A.715.715,0,0,0,331.163,197.281Z" transform="translate(-262.244 -154.171)"/><circle class="e" cx="0.715" cy="0.715" r="0.715" transform="translate(71.994 41.681)"/><path class="e" d="M280.1,201.923a.715.715,0,1,0-.714-.715A.715.715,0,0,0,280.1,201.923Z" transform="translate(-252.858 -155.024)"/><path class="e" d="M284.739,201.923a.715.715,0,1,0-.715-.715A.715.715,0,0,0,284.739,201.923Z" transform="translate(-253.711 -155.024)"/><path class="e" d="M289.381,201.923a.715.715,0,1,0-.714-.715A.715.715,0,0,0,289.381,201.923Z" transform="translate(-254.565 -155.024)"/><path class="e" d="M294.024,201.923a.715.715,0,1,0-.715-.715A.715.715,0,0,0,294.024,201.923Z" transform="translate(-255.418 -155.024)"/><path class="e" d="M298.666,201.923a.715.715,0,1,0-.714-.715A.715.715,0,0,0,298.666,201.923Z" transform="translate(-256.271 -155.024)"/><path class="e" d="M303.308,201.923a.715.715,0,1,0-.714-.715A.715.715,0,0,0,303.308,201.923Z" transform="translate(-257.124 -155.024)"/><path class="e" d="M307.951,201.923a.715.715,0,1,0-.715-.715A.715.715,0,0,0,307.951,201.923Z" transform="translate(-257.978 -155.024)"/><path class="e" d="M312.593,201.923a.715.715,0,1,0-.714-.715A.715.715,0,0,0,312.593,201.923Z" transform="translate(-258.831 -155.024)"/><path class="e" d="M317.235,201.923a.715.715,0,1,0-.714-.715A.715.715,0,0,0,317.235,201.923Z" transform="translate(-259.684 -155.024)"/><path class="e" d="M321.878,201.923a.715.715,0,1,0-.715-.715A.715.715,0,0,0,321.878,201.923Z" transform="translate(-260.537 -155.024)"/><path class="e" d="M326.52,201.923a.715.715,0,1,0-.714-.715A.715.715,0,0,0,326.52,201.923Z" transform="translate(-261.39 -155.024)"/><path class="e" d="M331.163,201.923a.715.715,0,1,0-.715-.715A.715.715,0,0,0,331.163,201.923Z" transform="translate(-262.244 -155.024)"/><path class="e" d="M335.8,201.923a.715.715,0,1,0-.715-.715A.715.715,0,0,0,335.8,201.923Z" transform="translate(-263.097 -155.024)"/><path class="e" d="M275.454,206.565a.715.715,0,1,0-.714-.714A.714.714,0,0,0,275.454,206.565Z" transform="translate(-252.005 -155.877)"/><circle class="e" cx="0.715" cy="0.715" r="0.715" transform="translate(26.524 49.259)"/><path class="e" d="M284.739,206.565a.715.715,0,1,0-.715-.714A.715.715,0,0,0,284.739,206.565Z" transform="translate(-253.711 -155.877)"/><circle class="e" cx="0.715" cy="0.715" r="0.715" transform="translate(34.102 49.259)"/><path class="e" d="M294.024,206.565a.715.715,0,1,0-.715-.714A.714.714,0,0,0,294.024,206.565Z" transform="translate(-255.418 -155.877)"/><path class="e" d="M298.666,206.565a.715.715,0,1,0-.714-.714A.714.714,0,0,0,298.666,206.565Z" transform="translate(-256.271 -155.877)"/><circle class="e" cx="0.715" cy="0.715" r="0.715" transform="translate(45.47 49.259)"/><path class="e" d="M307.951,206.565a.715.715,0,1,0-.715-.714A.714.714,0,0,0,307.951,206.565Z" transform="translate(-257.978 -155.877)"/><circle class="e" cx="0.715" cy="0.715" r="0.715" transform="translate(53.048 49.259)"/><path class="e" d="M317.235,206.565a.715.715,0,1,0-.714-.714A.715.715,0,0,0,317.235,206.565Z" transform="translate(-259.684 -155.877)"/><path class="e" d="M321.878,206.565a.715.715,0,1,0-.715-.714A.714.714,0,0,0,321.878,206.565Z" transform="translate(-260.537 -155.877)"/><circle class="e" cx="0.715" cy="0.715" r="0.715" transform="translate(64.415 49.259)"/><path class="e" d="M331.163,206.565a.715.715,0,1,0-.715-.714A.714.714,0,0,0,331.163,206.565Z" transform="translate(-262.244 -155.877)"/><circle class="e" cx="0.715" cy="0.715" r="0.715" transform="translate(71.994 49.259)"/><path class="e" d="M270.812,211.208a.715.715,0,1,0-.715-.715A.715.715,0,0,0,270.812,211.208Z" transform="translate(-251.152 -156.731)"/><path class="e" d="M275.454,211.208a.715.715,0,1,0-.714-.715A.714.714,0,0,0,275.454,211.208Z" transform="translate(-252.005 -156.731)"/><path class="e" d="M280.1,211.208a.715.715,0,1,0-.714-.715A.715.715,0,0,0,280.1,211.208Z" transform="translate(-252.858 -156.731)"/><path class="e" d="M284.739,211.208a.715.715,0,1,0-.715-.715A.715.715,0,0,0,284.739,211.208Z" transform="translate(-253.711 -156.731)"/><path class="e" d="M289.381,211.208a.715.715,0,1,0-.714-.715A.715.715,0,0,0,289.381,211.208Z" transform="translate(-254.565 -156.731)"/><path class="e" d="M294.024,211.208a.715.715,0,1,0-.715-.715A.715.715,0,0,0,294.024,211.208Z" transform="translate(-255.418 -156.731)"/><path class="e" d="M298.666,211.208a.715.715,0,1,0-.714-.715A.715.715,0,0,0,298.666,211.208Z" transform="translate(-256.271 -156.731)"/><path class="e" d="M303.308,211.208a.715.715,0,1,0-.714-.715A.715.715,0,0,0,303.308,211.208Z" transform="translate(-257.124 -156.731)"/><path class="e" d="M307.951,211.208a.715.715,0,1,0-.715-.715A.715.715,0,0,0,307.951,211.208Z" transform="translate(-257.978 -156.731)"/><path class="e" d="M312.593,211.208a.715.715,0,1,0-.714-.715A.715.715,0,0,0,312.593,211.208Z" transform="translate(-258.831 -156.731)"/><path class="e" d="M317.235,211.208a.715.715,0,1,0-.714-.715A.715.715,0,0,0,317.235,211.208Z" transform="translate(-259.684 -156.731)"/><path class="e" d="M321.878,211.208a.715.715,0,1,0-.715-.715A.715.715,0,0,0,321.878,211.208Z" transform="translate(-260.537 -156.731)"/><path class="e" d="M326.52,211.208a.715.715,0,1,0-.714-.715A.715.715,0,0,0,326.52,211.208Z" transform="translate(-261.39 -156.731)"/><path class="e" d="M331.163,211.208a.715.715,0,1,0-.715-.715A.715.715,0,0,0,331.163,211.208Z" transform="translate(-262.244 -156.731)"/><path class="e" d="M335.8,211.208a.715.715,0,1,0-.715-.715A.715.715,0,0,0,335.8,211.208Z" transform="translate(-263.097 -156.731)"/><path class="e" d="M266.169,215.85a.715.715,0,1,0-.714-.714A.715.715,0,0,0,266.169,215.85Z" transform="translate(-250.299 -157.584)"/><path class="e" d="M270.812,215.85a.715.715,0,1,0-.715-.714A.714.714,0,0,0,270.812,215.85Z" transform="translate(-251.152 -157.584)"/><path class="e" d="M275.454,215.85a.715.715,0,1,0-.714-.714A.714.714,0,0,0,275.454,215.85Z" transform="translate(-252.005 -157.584)"/><path class="e" d="M280.1,215.85a.715.715,0,1,0-.714-.714A.715.715,0,0,0,280.1,215.85Z" transform="translate(-252.858 -157.584)"/><path class="e" d="M284.739,215.85a.715.715,0,1,0-.715-.714A.715.715,0,0,0,284.739,215.85Z" transform="translate(-253.711 -157.584)"/><path class="e" d="M289.381,215.85a.715.715,0,1,0-.714-.714A.715.715,0,0,0,289.381,215.85Z" transform="translate(-254.565 -157.584)"/><path class="e" d="M294.024,215.85a.715.715,0,1,0-.715-.714A.714.714,0,0,0,294.024,215.85Z" transform="translate(-255.418 -157.584)"/><path class="e" d="M298.666,215.85a.715.715,0,1,0-.714-.714A.714.714,0,0,0,298.666,215.85Z" transform="translate(-256.271 -157.584)"/><path class="e" d="M303.308,215.85a.715.715,0,1,0-.714-.714A.715.715,0,0,0,303.308,215.85Z" transform="translate(-257.124 -157.584)"/><path class="e" d="M307.951,215.85a.715.715,0,1,0-.715-.714A.714.714,0,0,0,307.951,215.85Z" transform="translate(-257.978 -157.584)"/><path class="e" d="M312.593,215.85a.715.715,0,1,0-.714-.714A.714.714,0,0,0,312.593,215.85Z" transform="translate(-258.831 -157.584)"/><path class="e" d="M317.235,215.85a.715.715,0,1,0-.714-.714A.715.715,0,0,0,317.235,215.85Z" transform="translate(-259.684 -157.584)"/><path class="e" d="M321.878,215.85a.715.715,0,1,0-.715-.714A.714.714,0,0,0,321.878,215.85Z" transform="translate(-260.537 -157.584)"/><path class="e" d="M326.52,215.85a.715.715,0,1,0-.714-.714A.715.715,0,0,0,326.52,215.85Z" transform="translate(-261.39 -157.584)"/><path class="e" d="M331.163,215.85a.715.715,0,1,0-.715-.714A.714.714,0,0,0,331.163,215.85Z" transform="translate(-262.244 -157.584)"/><path class="e" d="M335.8,215.85a.715.715,0,1,0-.715-.714A.714.714,0,0,0,335.8,215.85Z" transform="translate(-263.097 -157.584)"/><path class="e" d="M261.527,220.492a.714.714,0,1,0-.714-.714A.714.714,0,0,0,261.527,220.492Z" transform="translate(-249.446 -158.437)"/><circle class="e" cx="0.715" cy="0.715" r="0.715" transform="translate(15.156 60.627)"/><path class="e" d="M270.812,220.492a.714.714,0,1,0-.715-.714A.714.714,0,0,0,270.812,220.492Z" transform="translate(-251.152 -158.437)"/><path class="e" d="M275.454,220.492a.714.714,0,1,0-.714-.714A.714.714,0,0,0,275.454,220.492Z" transform="translate(-252.005 -158.437)"/><circle class="e" cx="0.715" cy="0.715" r="0.715" transform="translate(26.524 60.627)"/><path class="e" d="M284.739,220.492a.714.714,0,1,0-.715-.714A.714.714,0,0,0,284.739,220.492Z" transform="translate(-253.711 -158.437)"/><circle class="e" cx="0.715" cy="0.715" r="0.715" transform="translate(34.102 60.627)"/><path class="e" d="M294.024,220.492a.714.714,0,1,0-.715-.714A.714.714,0,0,0,294.024,220.492Z" transform="translate(-255.418 -158.437)"/><path class="e" d="M298.666,220.492a.714.714,0,1,0-.714-.714A.714.714,0,0,0,298.666,220.492Z" transform="translate(-256.271 -158.437)"/><circle class="e" cx="0.715" cy="0.715" r="0.715" transform="translate(45.47 60.627)"/><path class="e" d="M307.951,220.492a.714.714,0,1,0-.715-.714A.714.714,0,0,0,307.951,220.492Z" transform="translate(-257.978 -158.437)"/><circle class="e" cx="0.715" cy="0.715" r="0.715" transform="translate(53.048 60.627)"/><path class="e" d="M317.235,220.492a.714.714,0,1,0-.714-.714A.715.715,0,0,0,317.235,220.492Z" transform="translate(-259.684 -158.437)"/><path class="e" d="M321.878,220.492a.714.714,0,1,0-.715-.714A.714.714,0,0,0,321.878,220.492Z" transform="translate(-260.537 -158.437)"/><circle class="e" cx="0.715" cy="0.715" r="0.715" transform="translate(64.415 60.627)"/><path class="e" d="M331.163,220.492a.714.714,0,1,0-.715-.714A.714.714,0,0,0,331.163,220.492Z" transform="translate(-262.244 -158.437)"/><circle class="e" cx="0.715" cy="0.715" r="0.715" transform="translate(71.994 60.627)"/><path class="e" d="M256.885,225.135a.715.715,0,1,0-.715-.715A.715.715,0,0,0,256.885,225.135Z" transform="translate(-248.592 -159.29)"/><path class="e" d="M261.527,225.135a.715.715,0,1,0-.714-.715A.714.714,0,0,0,261.527,225.135Z" transform="translate(-249.446 -159.29)"/><path class="e" d="M266.169,225.135a.715.715,0,1,0-.714-.715A.715.715,0,0,0,266.169,225.135Z" transform="translate(-250.299 -159.29)"/><path class="e" d="M270.812,225.135a.715.715,0,1,0-.715-.715A.715.715,0,0,0,270.812,225.135Z" transform="translate(-251.152 -159.29)"/><path class="e" d="M275.454,225.135a.715.715,0,1,0-.714-.715A.714.714,0,0,0,275.454,225.135Z" transform="translate(-252.005 -159.29)"/><path class="e" d="M280.1,225.135a.715.715,0,1,0-.714-.715A.715.715,0,0,0,280.1,225.135Z" transform="translate(-252.858 -159.29)"/><path class="e" d="M284.739,225.135a.715.715,0,1,0-.715-.715A.715.715,0,0,0,284.739,225.135Z" transform="translate(-253.711 -159.29)"/><path class="e" d="M289.381,225.135a.715.715,0,1,0-.714-.715A.715.715,0,0,0,289.381,225.135Z" transform="translate(-254.565 -159.29)"/><path class="e" d="M294.024,225.135a.715.715,0,1,0-.715-.715A.715.715,0,0,0,294.024,225.135Z" transform="translate(-255.418 -159.29)"/><path class="e" d="M298.666,225.135a.715.715,0,1,0-.714-.715A.715.715,0,0,0,298.666,225.135Z" transform="translate(-256.271 -159.29)"/><path class="e" d="M303.308,225.135a.715.715,0,1,0-.714-.715A.715.715,0,0,0,303.308,225.135Z" transform="translate(-257.124 -159.29)"/><path class="e" d="M307.951,225.135a.715.715,0,1,0-.715-.715A.715.715,0,0,0,307.951,225.135Z" transform="translate(-257.978 -159.29)"/><path class="e" d="M312.593,225.135a.715.715,0,1,0-.714-.715A.715.715,0,0,0,312.593,225.135Z" transform="translate(-258.831 -159.29)"/><path class="e" d="M317.235,225.135a.715.715,0,1,0-.714-.715A.715.715,0,0,0,317.235,225.135Z" transform="translate(-259.684 -159.29)"/><path class="e" d="M321.878,225.135a.715.715,0,1,0-.715-.715A.715.715,0,0,0,321.878,225.135Z" transform="translate(-260.537 -159.29)"/><path class="e" d="M326.52,225.135a.715.715,0,1,0-.714-.715A.715.715,0,0,0,326.52,225.135Z" transform="translate(-261.39 -159.29)"/><path class="e" d="M331.163,225.135a.715.715,0,1,0-.715-.715A.715.715,0,0,0,331.163,225.135Z" transform="translate(-262.244 -159.29)"/><path class="e" d="M335.8,225.135a.715.715,0,1,0-.715-.715A.715.715,0,0,0,335.8,225.135Z" transform="translate(-263.097 -159.29)"/><path class="e" d="M252.242,229.777a.715.715,0,1,0-.714-.714A.715.715,0,0,0,252.242,229.777Z" transform="translate(-247.739 -160.143)"/><circle class="e" cx="0.715" cy="0.715" r="0.715" transform="translate(7.578 68.205)"/><path class="e" d="M261.527,229.777a.715.715,0,1,0-.714-.714A.714.714,0,0,0,261.527,229.777Z" transform="translate(-249.446 -160.143)"/><circle class="e" cx="0.715" cy="0.715" r="0.715" transform="translate(15.156 68.205)"/><path class="e" d="M270.812,229.777a.715.715,0,1,0-.715-.714A.714.714,0,0,0,270.812,229.777Z" transform="translate(-251.152 -160.143)"/><path class="e" d="M275.454,229.777a.715.715,0,1,0-.714-.714A.714.714,0,0,0,275.454,229.777Z" transform="translate(-252.005 -160.143)"/><circle class="e" cx="0.715" cy="0.715" r="0.715" transform="translate(26.524 68.205)"/><path class="e" d="M284.739,229.777a.715.715,0,1,0-.715-.714A.714.714,0,0,0,284.739,229.777Z" transform="translate(-253.711 -160.143)"/><circle class="e" cx="0.715" cy="0.715" r="0.715" transform="translate(34.102 68.205)"/><path class="e" d="M294.024,229.777a.715.715,0,1,0-.715-.714A.714.714,0,0,0,294.024,229.777Z" transform="translate(-255.418 -160.143)"/><path class="e" d="M298.666,229.777a.715.715,0,1,0-.714-.714A.714.714,0,0,0,298.666,229.777Z" transform="translate(-256.271 -160.143)"/><circle class="e" cx="0.715" cy="0.715" r="0.715" transform="translate(45.47 68.205)"/><path class="e" d="M307.951,229.777a.715.715,0,1,0-.715-.714A.714.714,0,0,0,307.951,229.777Z" transform="translate(-257.978 -160.143)"/><circle class="e" cx="0.715" cy="0.715" r="0.715" transform="translate(53.048 68.205)"/><path class="e" d="M317.235,229.777a.715.715,0,1,0-.714-.714A.715.715,0,0,0,317.235,229.777Z" transform="translate(-259.684 -160.143)"/><path class="e" d="M321.878,229.777a.715.715,0,1,0-.715-.714A.714.714,0,0,0,321.878,229.777Z" transform="translate(-260.537 -160.143)"/><circle class="e" cx="0.715" cy="0.715" r="0.715" transform="translate(64.415 68.205)"/><path class="e" d="M331.163,229.777a.715.715,0,1,0-.715-.714A.714.714,0,0,0,331.163,229.777Z" transform="translate(-262.244 -160.143)"/><circle class="e" cx="0.715" cy="0.715" r="0.715" transform="translate(71.994 68.205)"/><path class="e" d="M247.6,234.419a.714.714,0,1,0-.714-.714A.714.714,0,0,0,247.6,234.419Z" transform="translate(-246.886 -160.997)"/><path class="e" d="M252.242,234.419a.714.714,0,1,0-.714-.714A.715.715,0,0,0,252.242,234.419Z" transform="translate(-247.739 -160.997)"/><path class="e" d="M256.885,234.419a.714.714,0,1,0-.715-.714A.714.714,0,0,0,256.885,234.419Z" transform="translate(-248.592 -160.997)"/><path class="e" d="M261.527,234.419a.714.714,0,1,0-.714-.714A.714.714,0,0,0,261.527,234.419Z" transform="translate(-249.446 -160.997)"/><path class="e" d="M266.169,234.419a.714.714,0,1,0-.714-.714A.715.715,0,0,0,266.169,234.419Z" transform="translate(-250.299 -160.997)"/><path class="e" d="M270.812,234.419a.714.714,0,1,0-.715-.714A.714.714,0,0,0,270.812,234.419Z" transform="translate(-251.152 -160.997)"/><path class="e" d="M275.454,234.419a.714.714,0,1,0-.714-.714A.714.714,0,0,0,275.454,234.419Z" transform="translate(-252.005 -160.997)"/><path class="e" d="M280.1,234.419a.714.714,0,1,0-.714-.714A.715.715,0,0,0,280.1,234.419Z" transform="translate(-252.858 -160.997)"/><path class="e" d="M284.739,234.419a.714.714,0,1,0-.715-.714A.714.714,0,0,0,284.739,234.419Z" transform="translate(-253.711 -160.997)"/><path class="e" d="M289.381,234.419a.714.714,0,1,0-.714-.714A.715.715,0,0,0,289.381,234.419Z" transform="translate(-254.565 -160.997)"/><path class="e" d="M294.024,234.419a.714.714,0,1,0-.715-.714A.714.714,0,0,0,294.024,234.419Z" transform="translate(-255.418 -160.997)"/><path class="e" d="M298.666,234.419a.714.714,0,1,0-.714-.714A.714.714,0,0,0,298.666,234.419Z" transform="translate(-256.271 -160.997)"/><path class="e" d="M303.308,234.419a.714.714,0,1,0-.714-.714A.715.715,0,0,0,303.308,234.419Z" transform="translate(-257.124 -160.997)"/><path class="e" d="M307.951,234.419a.714.714,0,1,0-.715-.714A.714.714,0,0,0,307.951,234.419Z" transform="translate(-257.978 -160.997)"/><path class="e" d="M312.593,234.419a.714.714,0,1,0-.714-.714A.714.714,0,0,0,312.593,234.419Z" transform="translate(-258.831 -160.997)"/><path class="e" d="M317.235,234.419a.714.714,0,1,0-.714-.714A.715.715,0,0,0,317.235,234.419Z" transform="translate(-259.684 -160.997)"/><path class="e" d="M321.878,234.419a.714.714,0,1,0-.715-.714A.714.714,0,0,0,321.878,234.419Z" transform="translate(-260.537 -160.997)"/><path class="e" d="M326.52,234.419a.714.714,0,1,0-.714-.714A.715.715,0,0,0,326.52,234.419Z" transform="translate(-261.39 -160.997)"/><path class="e" d="M331.163,234.419a.714.714,0,1,0-.715-.714A.714.714,0,0,0,331.163,234.419Z" transform="translate(-262.244 -160.997)"/><path class="e" d="M335.8,234.419a.714.714,0,1,0-.715-.714A.714.714,0,0,0,335.8,234.419Z" transform="translate(-263.097 -160.997)"/></g><g transform="translate(237.903 41.995)"><path class="e" d="M308.672,101.684a.445.445,0,1,0,.446.446A.445.445,0,0,0,308.672,101.684Z" transform="translate(-308.227 -56.806)"/><circle class="e" cx="0.445" cy="0.445" r="0.445" transform="translate(2.362 42.516)"/><path class="e" d="M308.672,98.79a.445.445,0,1,0,.446.446A.445.445,0,0,0,308.672,98.79Z" transform="translate(-308.227 -56.274)"/><path class="e" d="M314.46,95.9a.446.446,0,1,0,.446.446A.445.445,0,0,0,314.46,95.9Z" transform="translate(-309.291 -55.742)"/><path class="e" d="M311.566,95.9a.446.446,0,1,0,.446.446A.446.446,0,0,0,311.566,95.9Z" transform="translate(-308.759 -55.742)"/><path class="e" d="M308.672,95.9a.446.446,0,1,0,.446.446A.446.446,0,0,0,308.672,95.9Z" transform="translate(-308.227 -55.742)"/><circle class="e" cx="0.445" cy="0.445" r="0.445" transform="translate(7.086 37.792)"/><path class="e" d="M314.46,93a.446.446,0,1,0,.446.446A.445.445,0,0,0,314.46,93Z" transform="translate(-309.291 -55.211)"/><circle class="e" cx="0.445" cy="0.445" r="0.445" transform="translate(2.362 37.792)"/><path class="e" d="M308.672,93a.446.446,0,1,0,.446.446A.446.446,0,0,0,308.672,93Z" transform="translate(-308.227 -55.211)"/><path class="e" d="M320.248,90.109a.445.445,0,1,0,.446.445A.446.446,0,0,0,320.248,90.109Z" transform="translate(-310.354 -54.679)"/><path class="e" d="M317.354,90.109a.445.445,0,1,0,.446.445A.446.446,0,0,0,317.354,90.109Z" transform="translate(-309.822 -54.679)"/><path class="e" d="M314.46,90.109a.445.445,0,1,0,.446.445A.445.445,0,0,0,314.46,90.109Z" transform="translate(-309.291 -54.679)"/><path class="e" d="M311.566,90.109a.445.445,0,1,0,.446.445A.445.445,0,0,0,311.566,90.109Z" transform="translate(-308.759 -54.679)"/><path class="e" d="M308.672,90.109a.445.445,0,1,0,.446.445A.445.445,0,0,0,308.672,90.109Z" transform="translate(-308.227 -54.679)"/><path class="e" d="M323.142,87.215a.445.445,0,1,0,.445.445A.445.445,0,0,0,323.142,87.215Z" transform="translate(-310.886 -54.147)"/><path class="e" d="M320.248,87.215a.445.445,0,1,0,.446.445A.446.446,0,0,0,320.248,87.215Z" transform="translate(-310.354 -54.147)"/><path class="e" d="M317.354,87.215a.445.445,0,1,0,.446.445A.446.446,0,0,0,317.354,87.215Z" transform="translate(-309.822 -54.147)"/><path class="e" d="M314.46,87.215a.445.445,0,1,0,.446.445A.445.445,0,0,0,314.46,87.215Z" transform="translate(-309.291 -54.147)"/><path class="e" d="M311.566,87.215a.445.445,0,1,0,.446.445A.445.445,0,0,0,311.566,87.215Z" transform="translate(-308.759 -54.147)"/><path class="e" d="M308.672,87.215a.445.445,0,1,0,.446.445A.445.445,0,0,0,308.672,87.215Z" transform="translate(-308.227 -54.147)"/><path class="e" d="M326.036,84.321a.445.445,0,1,0,.445.446A.445.445,0,0,0,326.036,84.321Z" transform="translate(-311.418 -53.615)"/><path class="e" d="M323.142,84.321a.445.445,0,1,0,.445.446A.445.445,0,0,0,323.142,84.321Z" transform="translate(-310.886 -53.615)"/><path class="e" d="M320.248,84.321a.445.445,0,1,0,.446.446A.446.446,0,0,0,320.248,84.321Z" transform="translate(-310.354 -53.615)"/><path class="e" d="M317.354,84.321a.445.445,0,1,0,.446.446A.446.446,0,0,0,317.354,84.321Z" transform="translate(-309.822 -53.615)"/><path class="e" d="M314.46,84.321a.445.445,0,1,0,.446.446A.445.445,0,0,0,314.46,84.321Z" transform="translate(-309.291 -53.615)"/><path class="e" d="M311.566,84.321a.445.445,0,1,0,.446.446A.445.445,0,0,0,311.566,84.321Z" transform="translate(-308.759 -53.615)"/><path class="e" d="M308.672,84.321a.445.445,0,1,0,.446.446A.445.445,0,0,0,308.672,84.321Z" transform="translate(-308.227 -53.615)"/><path class="e" d="M328.929,81.427a.445.445,0,1,0,.446.446A.445.445,0,0,0,328.929,81.427Z" transform="translate(-311.95 -53.083)"/><path class="e" d="M326.036,81.427a.445.445,0,1,0,.445.446A.445.445,0,0,0,326.036,81.427Z" transform="translate(-311.418 -53.083)"/><path class="e" d="M323.142,81.427a.445.445,0,1,0,.445.446A.445.445,0,0,0,323.142,81.427Z" transform="translate(-310.886 -53.083)"/><path class="e" d="M320.248,81.427a.445.445,0,1,0,.446.446A.446.446,0,0,0,320.248,81.427Z" transform="translate(-310.354 -53.083)"/><path class="e" d="M317.354,81.427a.445.445,0,1,0,.446.446A.446.446,0,0,0,317.354,81.427Z" transform="translate(-309.822 -53.083)"/><path class="e" d="M314.46,81.427a.445.445,0,1,0,.446.446A.445.445,0,0,0,314.46,81.427Z" transform="translate(-309.291 -53.083)"/><path class="e" d="M311.566,81.427a.445.445,0,1,0,.446.446A.445.445,0,0,0,311.566,81.427Z" transform="translate(-308.759 -53.083)"/><path class="e" d="M308.672,81.427a.445.445,0,1,0,.446.446A.445.445,0,0,0,308.672,81.427Z" transform="translate(-308.227 -53.083)"/><path class="e" d="M331.823,78.533a.445.445,0,1,0,.446.446A.445.445,0,0,0,331.823,78.533Z" transform="translate(-312.482 -52.551)"/><path class="e" d="M328.929,78.533a.445.445,0,1,0,.446.446A.445.445,0,0,0,328.929,78.533Z" transform="translate(-311.95 -52.551)"/><path class="e" d="M326.036,78.533a.445.445,0,1,0,.445.446A.445.445,0,0,0,326.036,78.533Z" transform="translate(-311.418 -52.551)"/><path class="e" d="M323.142,78.533a.445.445,0,1,0,.445.446A.445.445,0,0,0,323.142,78.533Z" transform="translate(-310.886 -52.551)"/><path class="e" d="M320.248,78.533a.445.445,0,1,0,.446.446A.446.446,0,0,0,320.248,78.533Z" transform="translate(-310.354 -52.551)"/><path class="e" d="M317.354,78.533a.445.445,0,1,0,.446.446A.446.446,0,0,0,317.354,78.533Z" transform="translate(-309.822 -52.551)"/><path class="e" d="M314.46,78.533a.445.445,0,1,0,.446.446A.445.445,0,0,0,314.46,78.533Z" transform="translate(-309.291 -52.551)"/><path class="e" d="M311.566,78.533a.445.445,0,1,0,.446.446A.445.445,0,0,0,311.566,78.533Z" transform="translate(-308.759 -52.551)"/><path class="e" d="M308.672,78.533a.445.445,0,1,0,.446.446A.445.445,0,0,0,308.672,78.533Z" transform="translate(-308.227 -52.551)"/><path class="e" d="M334.717,75.639a.446.446,0,1,0,.446.446A.446.446,0,0,0,334.717,75.639Z" transform="translate(-313.014 -52.019)"/><path class="e" d="M331.823,75.639a.446.446,0,1,0,.446.446A.446.446,0,0,0,331.823,75.639Z" transform="translate(-312.482 -52.019)"/><path class="e" d="M328.929,75.639a.446.446,0,1,0,.446.446A.445.445,0,0,0,328.929,75.639Z" transform="translate(-311.95 -52.019)"/><path class="e" d="M326.036,75.639a.446.446,0,1,0,.445.446A.446.446,0,0,0,326.036,75.639Z" transform="translate(-311.418 -52.019)"/><path class="e" d="M323.142,75.639a.446.446,0,1,0,.445.446A.446.446,0,0,0,323.142,75.639Z" transform="translate(-310.886 -52.019)"/><path class="e" d="M320.248,75.639a.446.446,0,1,0,.446.446A.446.446,0,0,0,320.248,75.639Z" transform="translate(-310.354 -52.019)"/><path class="e" d="M317.354,75.639a.446.446,0,1,0,.446.446A.446.446,0,0,0,317.354,75.639Z" transform="translate(-309.822 -52.019)"/><path class="e" d="M314.46,75.639a.446.446,0,1,0,.446.446A.445.445,0,0,0,314.46,75.639Z" transform="translate(-309.291 -52.019)"/><path class="e" d="M311.566,75.639a.446.446,0,1,0,.446.446A.446.446,0,0,0,311.566,75.639Z" transform="translate(-308.759 -52.019)"/><path class="e" d="M308.672,75.639a.446.446,0,1,0,.446.446A.446.446,0,0,0,308.672,75.639Z" transform="translate(-308.227 -52.019)"/><path class="e" d="M337.611,72.745a.446.446,0,1,0,.446.446A.446.446,0,0,0,337.611,72.745Z" transform="translate(-313.545 -51.488)"/><path class="e" d="M334.717,72.745a.446.446,0,1,0,.446.446A.446.446,0,0,0,334.717,72.745Z" transform="translate(-313.014 -51.488)"/><path class="e" d="M331.823,72.745a.446.446,0,1,0,.446.446A.446.446,0,0,0,331.823,72.745Z" transform="translate(-312.482 -51.488)"/><path class="e" d="M328.929,72.745a.446.446,0,1,0,.446.446A.445.445,0,0,0,328.929,72.745Z" transform="translate(-311.95 -51.488)"/><path class="e" d="M326.036,72.745a.446.446,0,1,0,.445.446A.446.446,0,0,0,326.036,72.745Z" transform="translate(-311.418 -51.488)"/><path class="e" d="M323.142,72.745a.446.446,0,1,0,.445.446A.446.446,0,0,0,323.142,72.745Z" transform="translate(-310.886 -51.488)"/><path class="e" d="M320.248,72.745a.446.446,0,1,0,.446.446A.446.446,0,0,0,320.248,72.745Z" transform="translate(-310.354 -51.488)"/><path class="e" d="M317.354,72.745a.446.446,0,1,0,.446.446A.446.446,0,0,0,317.354,72.745Z" transform="translate(-309.822 -51.488)"/><path class="e" d="M314.46,72.745a.446.446,0,1,0,.446.446A.445.445,0,0,0,314.46,72.745Z" transform="translate(-309.291 -51.488)"/><path class="e" d="M311.566,72.745a.446.446,0,1,0,.446.446A.446.446,0,0,0,311.566,72.745Z" transform="translate(-308.759 -51.488)"/><path class="e" d="M308.672,72.745a.446.446,0,1,0,.446.446A.446.446,0,0,0,308.672,72.745Z" transform="translate(-308.227 -51.488)"/><circle class="e" cx="0.445" cy="0.445" r="0.445" transform="translate(25.982 18.896)"/><path class="e" d="M337.611,69.852a.445.445,0,1,0,.446.445A.446.446,0,0,0,337.611,69.852Z" transform="translate(-313.545 -50.956)"/><circle class="e" cx="0.445" cy="0.445" r="0.445" transform="translate(21.258 18.896)"/><path class="e" d="M331.823,69.852a.445.445,0,1,0,.446.445A.445.445,0,0,0,331.823,69.852Z" transform="translate(-312.482 -50.956)"/><circle class="e" cx="0.445" cy="0.445" r="0.445" transform="translate(16.534 18.896)"/><path class="e" d="M326.036,69.852a.445.445,0,1,0,.445.445A.445.445,0,0,0,326.036,69.852Z" transform="translate(-311.418 -50.956)"/><circle class="e" cx="0.445" cy="0.445" r="0.445" transform="translate(11.81 18.896)"/><path class="e" d="M320.248,69.852a.445.445,0,1,0,.446.445A.446.446,0,0,0,320.248,69.852Z" transform="translate(-310.354 -50.956)"/><circle class="e" cx="0.445" cy="0.445" r="0.445" transform="translate(7.086 18.896)"/><path class="e" d="M314.46,69.852a.445.445,0,1,0,.446.445A.445.445,0,0,0,314.46,69.852Z" transform="translate(-309.291 -50.956)"/><circle class="e" cx="0.445" cy="0.445" r="0.445" transform="translate(2.362 18.896)"/><path class="e" d="M308.672,69.852a.445.445,0,1,0,.446.445A.445.445,0,0,0,308.672,69.852Z" transform="translate(-308.227 -50.956)"/><path class="e" d="M343.4,66.958a.445.445,0,1,0,.445.445A.445.445,0,0,0,343.4,66.958Z" transform="translate(-314.609 -50.424)"/><path class="e" d="M340.5,66.958a.445.445,0,1,0,.445.445A.445.445,0,0,0,340.5,66.958Z" transform="translate(-314.077 -50.424)"/><path class="e" d="M337.611,66.958a.445.445,0,1,0,.446.445A.446.446,0,0,0,337.611,66.958Z" transform="translate(-313.545 -50.424)"/><path class="e" d="M334.717,66.958a.445.445,0,1,0,.446.445A.446.446,0,0,0,334.717,66.958Z" transform="translate(-313.014 -50.424)"/><path class="e" d="M331.823,66.958a.445.445,0,1,0,.446.445A.445.445,0,0,0,331.823,66.958Z" transform="translate(-312.482 -50.424)"/><path class="e" d="M328.929,66.958a.445.445,0,1,0,.446.445A.445.445,0,0,0,328.929,66.958Z" transform="translate(-311.95 -50.424)"/><path class="e" d="M326.036,66.958a.445.445,0,1,0,.445.445A.445.445,0,0,0,326.036,66.958Z" transform="translate(-311.418 -50.424)"/><path class="e" d="M323.142,66.958a.445.445,0,1,0,.445.445A.445.445,0,0,0,323.142,66.958Z" transform="translate(-310.886 -50.424)"/><path class="e" d="M320.248,66.958a.445.445,0,1,0,.446.445A.446.446,0,0,0,320.248,66.958Z" transform="translate(-310.354 -50.424)"/><path class="e" d="M317.354,66.958a.445.445,0,1,0,.446.445A.446.446,0,0,0,317.354,66.958Z" transform="translate(-309.822 -50.424)"/><path class="e" d="M314.46,66.958a.445.445,0,1,0,.446.445A.445.445,0,0,0,314.46,66.958Z" transform="translate(-309.291 -50.424)"/><path class="e" d="M311.566,66.958a.445.445,0,1,0,.446.445A.445.445,0,0,0,311.566,66.958Z" transform="translate(-308.759 -50.424)"/><path class="e" d="M308.672,66.958a.445.445,0,1,0,.446.445A.445.445,0,0,0,308.672,66.958Z" transform="translate(-308.227 -50.424)"/><circle class="e" cx="0.445" cy="0.445" r="0.445" transform="translate(30.706 14.172)"/><path class="e" d="M343.4,64.064a.445.445,0,1,0,.445.446A.445.445,0,0,0,343.4,64.064Z" transform="translate(-314.609 -49.892)"/><circle class="e" cx="0.445" cy="0.445" r="0.445" transform="translate(25.982 14.172)"/><path class="e" d="M337.611,64.064a.445.445,0,1,0,.446.446A.446.446,0,0,0,337.611,64.064Z" transform="translate(-313.545 -49.892)"/><circle class="e" cx="0.445" cy="0.445" r="0.445" transform="translate(21.258 14.172)"/><path class="e" d="M331.823,64.064a.445.445,0,1,0,.446.446A.445.445,0,0,0,331.823,64.064Z" transform="translate(-312.482 -49.892)"/><circle class="e" cx="0.445" cy="0.445" r="0.445" transform="translate(16.534 14.172)"/><path class="e" d="M326.036,64.064a.445.445,0,1,0,.445.446A.445.445,0,0,0,326.036,64.064Z" transform="translate(-311.418 -49.892)"/><circle class="e" cx="0.445" cy="0.445" r="0.445" transform="translate(11.81 14.172)"/><path class="e" d="M320.248,64.064a.445.445,0,1,0,.446.446A.446.446,0,0,0,320.248,64.064Z" transform="translate(-310.354 -49.892)"/><circle class="e" cx="0.445" cy="0.445" r="0.445" transform="translate(7.086 14.172)"/><path class="e" d="M314.46,64.064a.445.445,0,1,0,.446.446A.445.445,0,0,0,314.46,64.064Z" transform="translate(-309.291 -49.892)"/><circle class="e" cx="0.445" cy="0.445" r="0.445" transform="translate(2.362 14.172)"/><path class="e" d="M308.672,64.064a.445.445,0,1,0,.446.446A.445.445,0,0,0,308.672,64.064Z" transform="translate(-308.227 -49.892)"/><path class="e" d="M349.186,61.17a.445.445,0,1,0,.446.446A.445.445,0,0,0,349.186,61.17Z" transform="translate(-315.673 -49.36)"/><path class="e" d="M346.293,61.17a.445.445,0,1,0,.445.446A.445.445,0,0,0,346.293,61.17Z" transform="translate(-315.141 -49.36)"/><path class="e" d="M343.4,61.17a.445.445,0,1,0,.445.446A.445.445,0,0,0,343.4,61.17Z" transform="translate(-314.609 -49.36)"/><path class="e" d="M340.5,61.17a.445.445,0,1,0,.445.446A.445.445,0,0,0,340.5,61.17Z" transform="translate(-314.077 -49.36)"/><path class="e" d="M337.611,61.17a.445.445,0,1,0,.446.446A.446.446,0,0,0,337.611,61.17Z" transform="translate(-313.545 -49.36)"/><path class="e" d="M334.717,61.17a.445.445,0,1,0,.446.446A.446.446,0,0,0,334.717,61.17Z" transform="translate(-313.014 -49.36)"/><path class="e" d="M331.823,61.17a.445.445,0,1,0,.446.446A.445.445,0,0,0,331.823,61.17Z" transform="translate(-312.482 -49.36)"/><path class="e" d="M328.929,61.17a.445.445,0,1,0,.446.446A.445.445,0,0,0,328.929,61.17Z" transform="translate(-311.95 -49.36)"/><path class="e" d="M326.036,61.17a.445.445,0,1,0,.445.446A.445.445,0,0,0,326.036,61.17Z" transform="translate(-311.418 -49.36)"/><path class="e" d="M323.142,61.17a.445.445,0,1,0,.445.446A.445.445,0,0,0,323.142,61.17Z" transform="translate(-310.886 -49.36)"/><path class="e" d="M320.248,61.17a.445.445,0,1,0,.446.446A.446.446,0,0,0,320.248,61.17Z" transform="translate(-310.354 -49.36)"/><path class="e" d="M317.354,61.17a.445.445,0,1,0,.446.446A.446.446,0,0,0,317.354,61.17Z" transform="translate(-309.822 -49.36)"/><path class="e" d="M314.46,61.17a.445.445,0,1,0,.446.446A.445.445,0,0,0,314.46,61.17Z" transform="translate(-309.291 -49.36)"/><path class="e" d="M311.566,61.17a.445.445,0,1,0,.446.446A.445.445,0,0,0,311.566,61.17Z" transform="translate(-308.759 -49.36)"/><path class="e" d="M308.672,61.17a.445.445,0,1,0,.446.446A.445.445,0,0,0,308.672,61.17Z" transform="translate(-308.227 -49.36)"/><circle class="e" cx="0.445" cy="0.445" r="0.445" transform="translate(35.43 9.448)"/><path class="e" d="M349.186,58.276a.446.446,0,1,0,.446.446A.446.446,0,0,0,349.186,58.276Z" transform="translate(-315.673 -48.828)"/><circle class="e" cx="0.445" cy="0.445" r="0.445" transform="translate(30.706 9.448)"/><path class="e" d="M343.4,58.276a.446.446,0,1,0,.445.446A.446.446,0,0,0,343.4,58.276Z" transform="translate(-314.609 -48.828)"/><circle class="e" cx="0.445" cy="0.445" r="0.445" transform="translate(25.982 9.448)"/><path class="e" d="M337.611,58.276a.446.446,0,1,0,.446.446A.446.446,0,0,0,337.611,58.276Z" transform="translate(-313.545 -48.828)"/><circle class="e" cx="0.445" cy="0.445" r="0.445" transform="translate(21.258 9.448)"/><path class="e" d="M331.823,58.276a.446.446,0,1,0,.446.446A.446.446,0,0,0,331.823,58.276Z" transform="translate(-312.482 -48.828)"/><circle class="e" cx="0.445" cy="0.445" r="0.445" transform="translate(16.534 9.448)"/><path class="e" d="M326.036,58.276a.446.446,0,1,0,.445.446A.446.446,0,0,0,326.036,58.276Z" transform="translate(-311.418 -48.828)"/><circle class="e" cx="0.445" cy="0.445" r="0.445" transform="translate(11.81 9.448)"/><path class="e" d="M320.248,58.276a.446.446,0,1,0,.446.446A.446.446,0,0,0,320.248,58.276Z" transform="translate(-310.354 -48.828)"/><circle class="e" cx="0.445" cy="0.445" r="0.445" transform="translate(7.086 9.448)"/><path class="e" d="M314.46,58.276a.446.446,0,1,0,.446.446A.445.445,0,0,0,314.46,58.276Z" transform="translate(-309.291 -48.828)"/><circle class="e" cx="0.445" cy="0.445" r="0.445" transform="translate(2.362 9.448)"/><path class="e" d="M308.672,58.276a.446.446,0,1,0,.446.446A.446.446,0,0,0,308.672,58.276Z" transform="translate(-308.227 -48.828)"/><path class="e" d="M354.974,55.382a.446.446,0,1,0,.446.446A.446.446,0,0,0,354.974,55.382Z" transform="translate(-316.737 -48.296)"/><path class="e" d="M352.08,55.382a.446.446,0,1,0,.446.446A.446.446,0,0,0,352.08,55.382Z" transform="translate(-316.205 -48.296)"/><path class="e" d="M349.186,55.382a.446.446,0,1,0,.446.446A.446.446,0,0,0,349.186,55.382Z" transform="translate(-315.673 -48.296)"/><path class="e" d="M346.293,55.382a.446.446,0,1,0,.445.446A.446.446,0,0,0,346.293,55.382Z" transform="translate(-315.141 -48.296)"/><path class="e" d="M343.4,55.382a.446.446,0,1,0,.445.446A.446.446,0,0,0,343.4,55.382Z" transform="translate(-314.609 -48.296)"/><path class="e" d="M340.5,55.382a.446.446,0,1,0,.445.446A.446.446,0,0,0,340.5,55.382Z" transform="translate(-314.077 -48.296)"/><path class="e" d="M337.611,55.382a.446.446,0,1,0,.446.446A.446.446,0,0,0,337.611,55.382Z" transform="translate(-313.545 -48.296)"/><path class="e" d="M334.717,55.382a.446.446,0,1,0,.446.446A.446.446,0,0,0,334.717,55.382Z" transform="translate(-313.014 -48.296)"/><path class="e" d="M331.823,55.382a.446.446,0,1,0,.446.446A.446.446,0,0,0,331.823,55.382Z" transform="translate(-312.482 -48.296)"/><path class="e" d="M328.929,55.382a.446.446,0,1,0,.446.446A.445.445,0,0,0,328.929,55.382Z" transform="translate(-311.95 -48.296)"/><path class="e" d="M326.036,55.382a.446.446,0,1,0,.445.446A.446.446,0,0,0,326.036,55.382Z" transform="translate(-311.418 -48.296)"/><path class="e" d="M323.142,55.382a.446.446,0,1,0,.445.446A.446.446,0,0,0,323.142,55.382Z" transform="translate(-310.886 -48.296)"/><path class="e" d="M320.248,55.382a.446.446,0,1,0,.446.446A.446.446,0,0,0,320.248,55.382Z" transform="translate(-310.354 -48.296)"/><path class="e" d="M317.354,55.382a.446.446,0,1,0,.446.446A.446.446,0,0,0,317.354,55.382Z" transform="translate(-309.822 -48.296)"/><path class="e" d="M314.46,55.382a.446.446,0,1,0,.446.446A.445.445,0,0,0,314.46,55.382Z" transform="translate(-309.291 -48.296)"/><path class="e" d="M311.566,55.382a.446.446,0,1,0,.446.446A.446.446,0,0,0,311.566,55.382Z" transform="translate(-308.759 -48.296)"/><path class="e" d="M308.672,55.382a.446.446,0,1,0,.446.446A.446.446,0,0,0,308.672,55.382Z" transform="translate(-308.227 -48.296)"/><path class="e" d="M357.868,52.489a.445.445,0,1,0,.446.445A.445.445,0,0,0,357.868,52.489Z" transform="translate(-317.268 -47.765)"/><path class="e" d="M354.974,52.489a.445.445,0,1,0,.446.445A.445.445,0,0,0,354.974,52.489Z" transform="translate(-316.737 -47.765)"/><path class="e" d="M352.08,52.489a.445.445,0,1,0,.446.445A.445.445,0,0,0,352.08,52.489Z" transform="translate(-316.205 -47.765)"/><path class="e" d="M349.186,52.489a.445.445,0,1,0,.446.445A.445.445,0,0,0,349.186,52.489Z" transform="translate(-315.673 -47.765)"/><path class="e" d="M346.293,52.489a.445.445,0,1,0,.445.445A.445.445,0,0,0,346.293,52.489Z" transform="translate(-315.141 -47.765)"/><path class="e" d="M343.4,52.489a.445.445,0,1,0,.445.445A.445.445,0,0,0,343.4,52.489Z" transform="translate(-314.609 -47.765)"/><path class="e" d="M340.5,52.489a.445.445,0,1,0,.445.445A.445.445,0,0,0,340.5,52.489Z" transform="translate(-314.077 -47.765)"/><path class="e" d="M337.611,52.489a.445.445,0,1,0,.446.445A.446.446,0,0,0,337.611,52.489Z" transform="translate(-313.545 -47.765)"/><path class="e" d="M334.717,52.489a.445.445,0,1,0,.446.445A.446.446,0,0,0,334.717,52.489Z" transform="translate(-313.014 -47.765)"/><path class="e" d="M331.823,52.489a.445.445,0,1,0,.446.445A.445.445,0,0,0,331.823,52.489Z" transform="translate(-312.482 -47.765)"/><path class="e" d="M328.929,52.489a.445.445,0,1,0,.446.445A.445.445,0,0,0,328.929,52.489Z" transform="translate(-311.95 -47.765)"/><path class="e" d="M326.036,52.489a.445.445,0,1,0,.445.445A.445.445,0,0,0,326.036,52.489Z" transform="translate(-311.418 -47.765)"/><path class="e" d="M323.142,52.489a.445.445,0,1,0,.445.445A.445.445,0,0,0,323.142,52.489Z" transform="translate(-310.886 -47.765)"/><path class="e" d="M320.248,52.489a.445.445,0,1,0,.446.445A.446.446,0,0,0,320.248,52.489Z" transform="translate(-310.354 -47.765)"/><path class="e" d="M317.354,52.489a.445.445,0,1,0,.446.445A.446.446,0,0,0,317.354,52.489Z" transform="translate(-309.822 -47.765)"/><path class="e" d="M314.46,52.489a.445.445,0,1,0,.446.445A.445.445,0,0,0,314.46,52.489Z" transform="translate(-309.291 -47.765)"/><path class="e" d="M311.566,52.489a.445.445,0,1,0,.446.445A.445.445,0,0,0,311.566,52.489Z" transform="translate(-308.759 -47.765)"/><path class="e" d="M308.672,52.489a.445.445,0,1,0,.446.445A.445.445,0,0,0,308.672,52.489Z" transform="translate(-308.227 -47.765)"/><path class="e" d="M360.762,49.595a.445.445,0,1,0,.445.445A.445.445,0,0,0,360.762,49.595Z" transform="translate(-317.8 -47.233)"/><path class="e" d="M357.868,49.595a.445.445,0,1,0,.446.445A.445.445,0,0,0,357.868,49.595Z" transform="translate(-317.268 -47.233)"/><path class="e" d="M354.974,49.595a.445.445,0,1,0,.446.445A.445.445,0,0,0,354.974,49.595Z" transform="translate(-316.737 -47.233)"/><path class="e" d="M352.08,49.595a.445.445,0,1,0,.446.445A.445.445,0,0,0,352.08,49.595Z" transform="translate(-316.205 -47.233)"/><path class="e" d="M349.186,49.595a.445.445,0,1,0,.446.445A.445.445,0,0,0,349.186,49.595Z" transform="translate(-315.673 -47.233)"/><path class="e" d="M346.293,49.595a.445.445,0,1,0,.445.445A.445.445,0,0,0,346.293,49.595Z" transform="translate(-315.141 -47.233)"/><path class="e" d="M343.4,49.595a.445.445,0,1,0,.445.445A.445.445,0,0,0,343.4,49.595Z" transform="translate(-314.609 -47.233)"/><path class="e" d="M340.5,49.595a.445.445,0,1,0,.445.445A.445.445,0,0,0,340.5,49.595Z" transform="translate(-314.077 -47.233)"/><path class="e" d="M337.611,49.595a.445.445,0,1,0,.446.445A.446.446,0,0,0,337.611,49.595Z" transform="translate(-313.545 -47.233)"/><path class="e" d="M334.717,49.595a.445.445,0,1,0,.446.445A.446.446,0,0,0,334.717,49.595Z" transform="translate(-313.014 -47.233)"/><path class="e" d="M331.823,49.595a.445.445,0,1,0,.446.445A.445.445,0,0,0,331.823,49.595Z" transform="translate(-312.482 -47.233)"/><path class="e" d="M328.929,49.595a.445.445,0,1,0,.446.445A.445.445,0,0,0,328.929,49.595Z" transform="translate(-311.95 -47.233)"/><path class="e" d="M326.036,49.595a.445.445,0,1,0,.445.445A.445.445,0,0,0,326.036,49.595Z" transform="translate(-311.418 -47.233)"/><path class="e" d="M323.142,49.595a.445.445,0,1,0,.445.445A.445.445,0,0,0,323.142,49.595Z" transform="translate(-310.886 -47.233)"/><path class="e" d="M320.248,49.595a.445.445,0,1,0,.446.445A.446.446,0,0,0,320.248,49.595Z" transform="translate(-310.354 -47.233)"/><path class="e" d="M317.354,49.595a.445.445,0,1,0,.446.445A.446.446,0,0,0,317.354,49.595Z" transform="translate(-309.822 -47.233)"/><path class="e" d="M314.46,49.595a.445.445,0,1,0,.446.445A.445.445,0,0,0,314.46,49.595Z" transform="translate(-309.291 -47.233)"/><path class="e" d="M311.566,49.595a.445.445,0,1,0,.446.445A.445.445,0,0,0,311.566,49.595Z" transform="translate(-308.759 -47.233)"/><path class="e" d="M308.672,49.595a.445.445,0,1,0,.446.445A.445.445,0,0,0,308.672,49.595Z" transform="translate(-308.227 -47.233)"/><path class="e" d="M363.656,46.7a.445.445,0,1,0,.445.445A.445.445,0,0,0,363.656,46.7Z" transform="translate(-318.332 -46.701)"/><path class="e" d="M360.762,46.7a.445.445,0,1,0,.445.445A.445.445,0,0,0,360.762,46.7Z" transform="translate(-317.8 -46.701)"/><path class="e" d="M357.868,46.7a.445.445,0,1,0,.446.445A.445.445,0,0,0,357.868,46.7Z" transform="translate(-317.268 -46.701)"/><path class="e" d="M354.974,46.7a.445.445,0,1,0,.446.445A.445.445,0,0,0,354.974,46.7Z" transform="translate(-316.737 -46.701)"/><path class="e" d="M352.08,46.7a.445.445,0,1,0,.446.445A.445.445,0,0,0,352.08,46.7Z" transform="translate(-316.205 -46.701)"/><path class="e" d="M349.186,46.7a.445.445,0,1,0,.446.445A.445.445,0,0,0,349.186,46.7Z" transform="translate(-315.673 -46.701)"/><path class="e" d="M346.293,46.7a.445.445,0,1,0,.445.445A.445.445,0,0,0,346.293,46.7Z" transform="translate(-315.141 -46.701)"/><path class="e" d="M343.4,46.7a.445.445,0,1,0,.445.445A.445.445,0,0,0,343.4,46.7Z" transform="translate(-314.609 -46.701)"/><path class="e" d="M340.5,46.7a.445.445,0,1,0,.445.445A.445.445,0,0,0,340.5,46.7Z" transform="translate(-314.077 -46.701)"/><path class="e" d="M337.611,46.7a.445.445,0,1,0,.446.445A.446.446,0,0,0,337.611,46.7Z" transform="translate(-313.545 -46.701)"/><path class="e" d="M334.717,46.7a.445.445,0,1,0,.446.445A.446.446,0,0,0,334.717,46.7Z" transform="translate(-313.014 -46.701)"/><path class="e" d="M331.823,46.7a.445.445,0,1,0,.446.445A.445.445,0,0,0,331.823,46.7Z" transform="translate(-312.482 -46.701)"/><path class="e" d="M328.929,46.7a.445.445,0,1,0,.446.445A.445.445,0,0,0,328.929,46.7Z" transform="translate(-311.95 -46.701)"/><path class="e" d="M326.036,46.7a.445.445,0,1,0,.445.445A.445.445,0,0,0,326.036,46.7Z" transform="translate(-311.418 -46.701)"/><path class="e" d="M323.142,46.7a.445.445,0,1,0,.445.445A.445.445,0,0,0,323.142,46.7Z" transform="translate(-310.886 -46.701)"/><path class="e" d="M320.248,46.7a.445.445,0,1,0,.446.445A.446.446,0,0,0,320.248,46.7Z" transform="translate(-310.354 -46.701)"/><path class="e" d="M317.354,46.7a.445.445,0,1,0,.446.445A.446.446,0,0,0,317.354,46.7Z" transform="translate(-309.822 -46.701)"/><path class="e" d="M314.46,46.7a.445.445,0,1,0,.446.445A.445.445,0,0,0,314.46,46.7Z" transform="translate(-309.291 -46.701)"/><path class="e" d="M311.566,46.7a.445.445,0,1,0,.446.445A.445.445,0,0,0,311.566,46.7Z" transform="translate(-308.759 -46.701)"/><path class="e" d="M308.672,46.7a.445.445,0,1,0,.446.445A.445.445,0,0,0,308.672,46.7Z" transform="translate(-308.227 -46.701)"/></g><g transform="translate(204.544 86.068)"><g transform="translate(43.037)"><path class="e" d="M321.561,100.7V126.36l-1.477,1.477V102.176Z" transform="translate(-320.084 -100.699)"/></g><g transform="translate(39.456 3.581)"><path class="e" d="M317.173,105.087v25.662l-1.477,1.477V106.564Z" transform="translate(-315.696 -105.087)"/></g><g transform="translate(35.867 7.17)"><path class="e" d="M312.776,109.484v25.662l-1.477,1.477V110.961Z" transform="translate(-311.299 -109.484)"/></g><g transform="translate(32.278 10.759)"><path class="e" d="M308.379,113.881v25.662l-1.477,1.477V115.358Z" transform="translate(-306.902 -113.881)"/></g><g transform="translate(28.697 14.341)"><path class="e" d="M303.991,118.269V143.93l-1.477,1.477V119.746Z" transform="translate(-302.514 -118.269)"/></g><g transform="translate(25.108 17.93)"><path class="e" d="M299.594,122.666v25.661l-1.477,1.477V124.143Z" transform="translate(-298.117 -122.666)"/></g><g transform="translate(21.519 21.519)"><path class="e" d="M295.2,127.063v25.661L293.72,154.2V128.54Z" transform="translate(-293.72 -127.063)"/></g><g transform="translate(17.93 25.108)"><path class="e" d="M290.8,131.46v25.661l-1.477,1.477V132.937Z" transform="translate(-289.323 -131.46)"/></g><g transform="translate(14.348 28.689)"><path class="e" d="M286.412,135.848v25.662l-1.477,1.477V137.325Z" transform="translate(-284.935 -135.848)"/></g><g transform="translate(10.759 32.278)"><path class="e" d="M282.015,140.245v25.661l-1.477,1.477V141.722Z" transform="translate(-280.538 -140.245)"/></g><g transform="translate(7.171 35.867)"><path class="e" d="M277.618,144.642V170.3l-1.477,1.477V146.119Z" transform="translate(-276.141 -144.642)"/></g><g transform="translate(3.589 39.448)"><path class="e" d="M273.23,149.03v25.661l-1.477,1.477V150.507Z" transform="translate(-271.753 -149.03)"/></g><g transform="translate(0 43.037)"><path class="e" d="M268.833,153.427v25.662l-1.477,1.477V154.9Z" transform="translate(-267.356 -153.427)"/></g></g><g transform="translate(147.266 27.239)"><g transform="translate(41.824)"><path class="e" d="M249.858,28.622V53.56L248.423,55V30.058Z" transform="translate(-248.423 -28.622)"/></g><g transform="translate(38.344 3.481)"><path class="e" d="M245.594,32.886V57.825l-1.435,1.435V34.322Z" transform="translate(-244.158 -32.886)"/></g><g transform="translate(34.856 6.968)"><path class="e" d="M241.321,37.16V62.1l-1.435,1.435V38.595Z" transform="translate(-239.885 -37.16)"/></g><g transform="translate(31.368 10.456)"><path class="e" d="M237.048,41.433V66.371l-1.435,1.435V42.868Z" transform="translate(-235.612 -41.433)"/></g><g transform="translate(27.887 13.937)"><path class="e" d="M232.783,45.7V70.635l-1.435,1.435V47.132Z" transform="translate(-231.348 -45.697)"/></g><g transform="translate(24.4 17.424)"><path class="e" d="M228.51,49.97V74.908l-1.435,1.435V51.405Z" transform="translate(-227.075 -49.97)"/></g><g transform="translate(20.912 20.912)"><path class="e" d="M224.237,54.243V79.181L222.8,80.616V55.678Z" transform="translate(-222.802 -54.243)"/></g><g transform="translate(17.424 24.4)"><path class="e" d="M219.964,58.516V83.454l-1.435,1.435V59.951Z" transform="translate(-218.529 -58.516)"/></g><g transform="translate(13.944 27.88)"><path class="e" d="M215.7,62.78V87.718l-1.435,1.435V64.216Z" transform="translate(-214.265 -62.78)"/></g><g transform="translate(10.456 31.368)"><path class="e" d="M211.427,67.053V91.992l-1.435,1.435V68.489Z" transform="translate(-209.991 -67.053)"/></g><g transform="translate(6.968 34.856)"><path class="e" d="M207.154,71.326V96.264L205.718,97.7V72.762Z" transform="translate(-205.718 -71.326)"/></g><g transform="translate(3.488 38.336)"><path class="e" d="M202.889,75.591v24.938l-1.435,1.435V77.026Z" transform="translate(-201.454 -75.591)"/></g><g transform="translate(0 41.824)"><path class="e" d="M198.616,79.864V104.8l-1.435,1.435V81.3Z" transform="translate(-197.181 -79.864)"/></g></g><path class="c" d="M212.9,148.929v20.766l20.766-20.766Z" transform="translate(-52.804 -23.494)"/><path class="c" d="M188.181,234.651V254.96l20.309-20.309Z" transform="translate(-48.261 -39.249)"/><g transform="translate(202.739 157.734)"><path class="e" d="M265.553,265.775a.409.409,0,0,1-.289-.7l76.456-76.456a.408.408,0,0,1,.577.577l-76.456,76.456A.407.407,0,0,1,265.553,265.775Z" transform="translate(-265.145 -188.502)"/></g><g transform="translate(123.82 17.87)"><path class="e" d="M168.864,85.766a.408.408,0,0,1-.289-.7l67.806-67.807a.408.408,0,1,1,.577.577L169.152,85.647A.408.408,0,0,1,168.864,85.766Z" transform="translate(-168.456 -17.144)"/></g><g transform="translate(151.841 177.395)"><path class="e" d="M203.194,220.7a.409.409,0,0,1-.289-.7l7.3-7.3a.408.408,0,0,1,.577.577l-7.3,7.3A.4.4,0,0,1,203.194,220.7Z" transform="translate(-202.786 -212.589)"/></g><g transform="translate(23.246 201.562)"><path class="e" d="M45.644,253.957a.408.408,0,0,1-.289-.7L56.3,242.317a.408.408,0,0,1,.577.577L45.932,253.838A.407.407,0,0,1,45.644,253.957Z" transform="translate(-45.236 -242.198)"/></g><g transform="translate(193.511 104.052)"><path class="e" d="M254.246,147.366a.408.408,0,0,1-.288-.7l23.818-23.818a.408.408,0,0,1,.578.577l-23.819,23.818A.407.407,0,0,1,254.246,147.366Z" transform="translate(-253.839 -122.732)"/></g><g transform="translate(268.539 57.66)"><path class="e" d="M346.169,106.85a.408.408,0,0,1-.288-.7l40.139-40.14a.408.408,0,0,1,.577.577l-40.139,40.14A.41.41,0,0,1,346.169,106.85Z" transform="translate(-345.761 -65.894)"/></g><g transform="translate(197.827 71.754)"><path class="e" d="M259.535,113.038a.408.408,0,0,1-.289-.7L288.307,83.28a.408.408,0,0,1,.577.577l-29.061,29.062A.406.406,0,0,1,259.535,113.038Z" transform="translate(-259.127 -83.161)"/></g><g transform="translate(155.554 129.858)"><path class="e" d="M207.743,241.646a.409.409,0,0,1-.288-.7l86.482-86.481a.408.408,0,0,1,.577.577l-86.482,86.481A.407.407,0,0,1,207.743,241.646Z" transform="translate(-207.336 -154.348)"/></g><g transform="translate(208.986 25.323)"><path class="e" d="M285.109,42.719l1.267-1.268V32.427l-1.267,1.268Zm-9.231,9.231,1.268-1.267V41.658l-1.268,1.268Zm15.383-15.382,1.267-1.268V26.275l-1.267,1.268ZM272.8,55.029l1.267-1.268V44.738L272.8,46Zm6.152-6.152,1.267-1.268V38.585l-1.267,1.268Zm9.231-9.231,1.268-1.267V29.355l-1.268,1.267ZM282.03,45.8l1.268-1.267V35.506l-1.268,1.267Z" transform="translate(-272.799 -26.275)"/></g><g transform="translate(270.614 153.962)"><path class="e" d="M363.62,204.341l1.577-1.577V191.534l-1.577,1.577Zm-11.486,11.486,1.576-1.576V203.021l-1.576,1.577Zm19.141-19.14,1.576-1.577V183.88l-1.576,1.577ZM348.3,219.658l1.576-1.576V206.852l-1.576,1.577ZM355.957,212l1.577-1.577V199.2l-1.577,1.577Zm11.486-11.486,1.577-1.577V187.711l-1.577,1.577Zm-7.654,7.654,1.577-1.577V195.366l-1.577,1.577Z" transform="translate(-348.303 -183.88)"/></g><path class="e" d="M82.287,256.341l1.576-1.577V243.534l-1.576,1.577ZM70.8,267.827l1.577-1.576V255.021L70.8,256.6Zm19.141-19.14,1.577-1.577V235.88l-1.577,1.577ZM66.969,271.658l1.577-1.576V258.852l-1.577,1.577ZM74.624,264l1.576-1.577V251.2l-1.576,1.577ZM86.11,252.518l1.577-1.577V239.711l-1.577,1.577Zm-7.654,7.654,1.576-1.577V247.366l-1.576,1.577Z" transform="translate(-25.984 -39.475)"/><g transform="translate(183.059 168.477)"><path class="e" d="M257.992,250.263l2.851-2.851v-20.3l-2.851,2.851Z" transform="translate(-244.151 -206.339)"/><path class="e" d="M249.522,258.734l2.851-2.851v-20.3l-2.851,2.851Z" transform="translate(-242.594 -207.896)"/><path class="e" d="M283.437,204.514v20.3l2.851-2.851v-20.3Z" transform="translate(-248.827 -201.663)"/><path class="e" d="M266.479,241.776l2.851-2.851v-20.3l-2.851,2.851Z" transform="translate(-245.711 -204.78)"/><path class="e" d="M241.034,267.221l2.851-2.851v-20.3l-2.851,2.851Z" transform="translate(-241.034 -209.456)"/><path class="e" d="M274.967,233.288l2.851-2.851v-20.3l-2.851,2.851Z" transform="translate(-247.27 -203.22)"/></g><g transform="translate(260.98 70.118)"><path class="e" d="M345.16,105.975l1.456-1.456V94.15l-1.456,1.456Z" transform="translate(-338.092 -83.545)"/><path class="e" d="M340.835,110.3l1.456-1.456V98.476l-1.456,1.456Z" transform="translate(-337.297 -84.34)"/><path class="e" d="M358.154,82.613V92.981l1.456-1.456V81.157Z" transform="translate(-340.48 -81.157)"/><path class="e" d="M349.494,101.641l1.456-1.456V89.816l-1.456,1.456Z" transform="translate(-338.889 -82.748)"/><path class="e" d="M336.5,114.634l1.456-1.456V102.81l-1.456,1.456Z" transform="translate(-336.501 -85.136)"/><path class="e" d="M353.828,97.306l1.456-1.456V85.482l-1.456,1.456Z" transform="translate(-339.685 -81.952)"/></g><g transform="translate(264.713 77.471)"><path class="c" d="M399.006,148.1H341.073l57.933-57.933Z" transform="translate(-341.073 -90.165)"/></g><g transform="translate(123.276 150.534)"><path class="c" d="M167.789,179.68h50.522L167.789,230.2Z" transform="translate(-167.789 -179.68)"/></g><g transform="translate(52.847 84.752)"><path class="e" d="M81.91,181.11a.409.409,0,0,1-.289-.7l81.208-81.208a.408.408,0,0,1,.577.577L82.2,180.99A.407.407,0,0,1,81.91,181.11Z" transform="translate(-81.502 -99.086)"/></g><g transform="translate(214.004 -6.59)"><path class="e" d="M279.355,60.21a.409.409,0,0,1-.289-.7L351.283-12.7a.408.408,0,0,1,.577,0,.409.409,0,0,1,0,.578L279.643,60.09A.4.4,0,0,1,279.355,60.21Z" transform="translate(-278.947 12.823)"/></g><g transform="translate(311.085 51.583)"><path class="e" d="M398.3,82.435a.409.409,0,0,1-.288-.7l23.17-23.171a.408.408,0,0,1,.577.578l-23.17,23.17A.407.407,0,0,1,398.3,82.435Z" transform="translate(-397.887 -58.448)"/></g><g transform="translate(102.306 111.448)"><path class="e" d="M142.506,152.745a.409.409,0,0,1-.288-.7l20.136-20.135a.408.408,0,1,1,.577.577L142.8,152.625A.407.407,0,0,1,142.506,152.745Z" transform="translate(-142.098 -131.793)"/></g><g transform="translate(218.95 89.872)"><path class="e" d="M285.414,114.558a.408.408,0,0,1-.288-.7l8.383-8.383a.408.408,0,1,1,.577.577l-8.383,8.383A.41.41,0,0,1,285.414,114.558Z" transform="translate(-285.007 -105.359)"/></g><g transform="translate(134.27 125.208)"><path class="e" d="M181.667,160.982a.408.408,0,0,1-.288-.7l11.514-11.514a.408.408,0,0,1,.577.577l-11.514,11.514A.406.406,0,0,1,181.667,160.982Z" transform="translate(-181.259 -148.651)"/></g></g></g></svg>