<?xml version="1.0" encoding="utf-8"?>
<!-- Generator: Adobe Illustrator 16.0.0, SVG Export Plug-In . SVG Version: 6.00 Build 0)  -->
<!DOCTYPE svg PUBLIC "-//W3C//DTD SVG 1.1//EN" "http://www.w3.org/Graphics/SVG/1.1/DTD/svg11.dtd">
<svg version="1.1" id="Capa_1" xmlns="http://www.w3.org/2000/svg" xmlns:xlink="http://www.w3.org/1999/xlink" x="0px" y="0px"
	 width="800px" height="800px" viewBox="0 0 800 800" enable-background="new 0 0 800 800" xml:space="preserve">
<g>
	<path fill="#FFFFFF" d="M516.129,645.161V154.839H283.871v38.709c0,7.128-5.775,12.903-12.903,12.903v25.806
		c7.128,0,12.903,5.776,12.903,12.903v400H516.129z"/>
	<rect x="540.936" y="153.839" fill="#259245" width="234.258" height="492.322"/>
	<rect x="541.936" y="154.839" fill="#259245" width="232.258" height="490.322"/>
	<path fill="#259245" d="M24.807,646.161V153.839h234.258v39.709c0,6.563,5.34,11.903,11.903,11.903h1v27.806h-1
		c-6.563,0-11.903,5.34-11.903,11.903v401H24.807z"/>
	<path fill="#259245" d="M258.064,193.548v-38.709H25.807v490.322h232.258v-400c0-7.127,5.775-12.903,12.903-12.903v-25.806
		C263.84,206.452,258.064,200.676,258.064,193.548z"/>
	<path d="M787.097,129.032H12.903C5.775,129.032,0,134.808,0,141.936v516.129c0,7.128,5.775,12.903,12.903,12.903h774.193
		c7.128,0,12.903-5.775,12.903-12.903V141.936C800,134.808,794.225,129.032,787.097,129.032z M774.193,645.161H541.936V154.839
		h232.258V645.161z M270.968,232.258c-7.128,0-12.903,5.776-12.903,12.903v400H25.807V154.839h232.258v38.709
		c0,7.128,5.775,12.903,12.903,12.903s12.903-5.775,12.903-12.903v-38.709h232.258v490.322H283.871v-400
		C283.871,238.034,278.096,232.258,270.968,232.258z"/>
</g>
</svg>
