<svg xmlns="http://www.w3.org/2000/svg" xmlns:xlink="http://www.w3.org/1999/xlink" width="233.03" height="257.908" viewBox="0 0 233.03 257.908"><defs><style>.a,.f,.h{fill:#fff;}.a{stroke:rgba(0,0,0,0.15);}.b,.f{opacity:0.2;}.b{clip-path:url(#a);}.c{fill:#96c6de;}.d{fill:#76afcb;}.e{fill:#abd1e4;}.g{fill:#096dd9;}.i{opacity:0.16;}</style><clipPath id="a"><rect class="a" width="233.03" height="257.909"/></clipPath></defs><g class="b" transform="translate(0 0)"><g transform="translate(256.582 -51.854) rotate(45)"><circle class="c" cx="78.23" cy="78.23" r="78.23" transform="translate(22.569 211.647)"/><circle class="d" cx="63.965" cy="63.965" r="63.965" transform="translate(36.833 225.911)"/><circle class="e" cx="57.132" cy="57.132" r="57.132" transform="translate(43.666 232.744)"/><path class="e" d="M50.174,107.509A16.284,16.284,0,1,0,33.89,91.224a16.284,16.284,0,0,0,16.284,16.284Zm0-24.264a7.918,7.918,0,1,0,0,.075Z" transform="translate(50.624 111.943)"/><path class="f" d="M74.181,100.736A16.259,16.259,0,0,1,87.348,75v8.229a7.955,7.955,0,1,0,0,15.91V256.1A78.23,78.23,0,0,1,74.181,100.736Z" transform="translate(13.45 112.033)"/><path class="g" d="M45.95,170.075H73.132L133.157,0H105.975Z" transform="translate(68.639)"/><path class="g" d="M24.15,170.075H51.332L111.357,0H84.175Z" transform="translate(36.075)"/><path class="h" d="M35.05,170.075H62.232L122.257,0H95.075Z" transform="translate(52.357)"/><path class="i" d="M138.539,0H84.175L24.15,170.075H105.7L165.722,0Z" transform="translate(36.075)"/><path class="e" d="M38.45,72.27V87.632a4.988,4.988,0,1,0,9.975,0V72.27Z" transform="translate(57.436 107.955)"/><path class="e" d="M129.182,84.5H25.117a9.277,9.277,0,1,1,0-18.554H129.182a9.277,9.277,0,1,1,0,18.554ZM25.117,71.561a3.666,3.666,0,1,0,0,7.332H129.182a3.666,3.666,0,1,0,0-7.332Z" transform="translate(23.661 98.514)"/><path class="g" d="M87.207,170.075H60.025L0,0H27.182Z"/><path class="g" d="M109.007,170.075H81.825L21.8,0H48.982Z" transform="translate(32.564)"/><path class="h" d="M98.107,170.075H70.925L10.9,0H38.082Z" transform="translate(16.282)"/></g></g></svg>