<svg id="Layer_1" data-name="Layer 1" xmlns="http://www.w3.org/2000/svg" width="87.954" height="160.451" viewBox="0 0 87.954 160.451">
  <circle id="Ellipse_555" data-name="Ellipse 555" cx="34.097" cy="34.097" r="34.097" transform="translate(9.837 92.247)" fill="#96c6de"/>
  <circle id="Ellipse_556" data-name="Ellipse 556" cx="27.88" cy="27.88" r="27.88" transform="translate(16.054 98.464)" fill="#76afcb"/>
  <circle id="Ellipse_557" data-name="Ellipse 557" cx="24.901" cy="24.901" r="24.901" transform="translate(19.032 101.442)" fill="#abd1e4"/>
  <path id="Path_2032" data-name="Path 2032" d="M40.988,89.135a7.1,7.1,0,1,0-7.1-7.1,7.1,7.1,0,0,0,7.1,7.1Zm0-10.576a3.451,3.451,0,1,0,0,.033Z" transform="translate(2.946 6.514)" fill="#abd1e4"/>
  <path id="Path_2033" data-name="Path 2033" d="M37.412,86.217A7.087,7.087,0,0,1,43.151,75v3.587a3.467,3.467,0,0,0,0,6.935v68.411a34.1,34.1,0,0,1-5.739-67.715Z" transform="translate(0.783 6.519)" fill="#fff" opacity="0.2"/>
  <path id="Path_2034" data-name="Path 2034" d="M45.95,74.128H57.8L83.96,0H72.112Z" transform="translate(3.994)" fill="#096dd9"/>
  <path id="Path_2035" data-name="Path 2035" d="M24.15,74.128H36L62.16,0H50.312Z" transform="translate(2.099)" fill="#096dd9"/>
  <path id="Path_2036" data-name="Path 2036" d="M35.05,74.128H46.9L73.06,0H61.212Z" transform="translate(3.047)" fill="#fff"/>
  <path id="Path_2037" data-name="Path 2037" d="M74.007,0H50.312L24.15,74.128H59.692L85.855,0Z" transform="translate(2.099)" opacity="0.16"/>
  <path id="Path_2038" data-name="Path 2038" d="M38.45,72.27v6.7a2.174,2.174,0,1,0,4.348,0v-6.7Z" transform="translate(3.342 6.282)" fill="#abd1e4"/>
  <path id="Path_2039" data-name="Path 2039" d="M65.241,74.037H19.883a4.043,4.043,0,1,1,0-8.087H65.241a4.043,4.043,0,1,1,0,8.087ZM19.883,68.4a1.6,1.6,0,1,0,0,3.2H65.241a1.6,1.6,0,0,0,0-3.2Z" transform="translate(1.377 5.733)" fill="#abd1e4"/>
  <path id="Path_2040" data-name="Path 2040" d="M38.01,74.128H26.162L0,0H11.847Z" fill="#096dd9"/>
  <path id="Path_2041" data-name="Path 2041" d="M59.81,74.128H47.962L21.8,0H33.647Z" transform="translate(1.895)" fill="#096dd9"/>
  <path id="Path_2042" data-name="Path 2042" d="M48.91,74.128H37.062L10.9,0H22.747Z" transform="translate(0.947)" fill="#fff"/>
</svg>
