<svg xmlns="http://www.w3.org/2000/svg" xmlns:xlink="http://www.w3.org/1999/xlink" width="233.03" height="257.908" viewBox="0 0 233.03 257.908"><defs><style>.a,.f,.h{fill:#fff;}.a{stroke:rgba(0,0,0,0.15);}.b,.f{opacity:0.2;}.b{clip-path:url(#a);}.c{fill:#d1d3d4;}.d{fill:#a7a9ac;}.e{fill:#bcbec0;}.g{fill:#096dd9;}.i{opacity:0.16;}</style><clipPath id="a"><rect class="a" width="233.03" height="257.909"/></clipPath></defs><g class="b" transform="translate(0 0.002)"><g transform="translate(256.738 -48.928) rotate(45)"><g transform="translate(0 0)"><circle class="c" cx="77.157" cy="77.157" r="77.157" transform="translate(22.259 208.744)"/><circle class="d" cx="63.088" cy="63.088" r="63.088" transform="translate(36.328 222.812)"/><circle class="e" cx="56.349" cy="56.349" r="56.349" transform="translate(43.067 229.551)"/><path class="c" d="M16.061,32.122A16.061,16.061,0,1,0,0,16.061,16.061,16.061,0,0,0,16.061,32.122Zm0-23.932a7.809,7.809,0,1,0,0,.074Z" transform="translate(83.355 184.32)"/><path class="f" d="M64.283,25.383A16.036,16.036,0,0,1,77.27,0V8.117a7.846,7.846,0,0,0,0,15.692V178.614A77.157,77.157,0,0,1,64.283,25.383Z" transform="translate(22.146 184.468)"/><path class="g" d="M0,167.743H26.809L86.011,0H59.2Z" transform="translate(113.017 0)"/><path class="g" d="M0,167.743H26.809L86.011,0H59.2Z" transform="translate(59.399 0)"/><path class="h" d="M0,167.743H26.809L86.011,0H59.2Z" transform="translate(86.208 0)"/><path class="i" d="M112.82,0H59.2L0,167.743H80.428L139.63,0Z" transform="translate(59.399 0)"/><path class="c" d="M0,0V15.151a4.919,4.919,0,1,0,9.838,0V0Z" transform="translate(94.57 177.753)"/><path class="c" d="M111.787,18.3H9.15A9.15,9.15,0,0,1,9.15,0H111.787a9.15,9.15,0,1,1,0,18.3ZM9.15,5.534a3.616,3.616,0,1,0,0,7.231H111.787a3.616,3.616,0,0,0,0-7.231Z" transform="translate(38.96 162.208)"/><path class="g" d="M86.011,167.743H59.2L0,0H26.809Z" transform="translate(0 0)"/><path class="g" d="M86.011,167.743H59.2L0,0H26.809Z" transform="translate(53.619 0)"/><path class="h" d="M86.011,167.743H59.2L0,0H26.809Z" transform="translate(26.809 0)"/></g></g></g></svg>