<svg xmlns="http://www.w3.org/2000/svg" width="88" height="160.536" viewBox="0 0 88 160.536">
  <g id="Silver_icon" data-name="Silver icon" transform="translate(0)">
    <g id="Layer_1" data-name="Layer 1">
      <circle id="Ellipse_534" data-name="Ellipse 534" cx="34.115" cy="34.115" r="34.115" transform="translate(9.842 92.296)" fill="#d1d3d4"/>
      <circle id="Ellipse_535" data-name="Ellipse 535" cx="27.894" cy="27.894" r="27.894" transform="translate(16.062 98.516)" fill="#a7a9ac"/>
      <circle id="Ellipse_536" data-name="Ellipse 536" cx="24.914" cy="24.914" r="24.914" transform="translate(19.042 101.496)" fill="#bcbec0"/>
      <path id="Path_1954" data-name="Path 1954" d="M40.991,89.143a7.1,7.1,0,1,0-7.1-7.1,7.1,7.1,0,0,0,7.1,7.1Zm0-10.581a3.453,3.453,0,1,0,0,.033Z" transform="translate(2.965 6.557)" fill="#d1d3d4"/>
      <path id="Path_1955" data-name="Path 1955" d="M37.427,86.223A7.09,7.09,0,0,1,43.169,75v3.589a3.469,3.469,0,0,0,0,6.938v68.447a34.115,34.115,0,0,1-5.742-67.751Z" transform="translate(0.788 6.562)" fill="#fff" opacity="0.2"/>
      <path id="Path_1956" data-name="Path 1956" d="M45.95,74.167H57.8L83.98,0H72.126Z" transform="translate(4.02)" fill="#096dd9"/>
      <path id="Path_1957" data-name="Path 1957" d="M24.15,74.167H36L62.18,0H50.326Z" transform="translate(2.113)" fill="#096dd9"/>
      <path id="Path_1958" data-name="Path 1958" d="M35.05,74.167H46.9L73.08,0H61.226Z" transform="translate(3.067)" fill="#fff"/>
      <path id="Path_1959" data-name="Path 1959" d="M74.033,0H50.326L24.15,74.167H59.711L85.887,0Z" transform="translate(2.113)" opacity="0.16"/>
      <path id="Path_1960" data-name="Path 1960" d="M38.45,72.27v6.7a2.175,2.175,0,0,0,4.35,0v-6.7Z" transform="translate(3.364 6.323)" fill="#d1d3d4"/>
      <path id="Path_1961" data-name="Path 1961" d="M65.267,74.041H19.885a4.045,4.045,0,0,1,0-8.091H65.267a4.045,4.045,0,0,1,0,8.091ZM19.885,68.4a1.6,1.6,0,0,0,0,3.2H65.267a1.6,1.6,0,0,0,0-3.2Z" transform="translate(1.386 5.77)" fill="#d1d3d4"/>
      <path id="Path_1962" data-name="Path 1962" d="M38.03,74.167H26.176L0,0H11.854Z" fill="#096dd9"/>
      <path id="Path_1963" data-name="Path 1963" d="M59.83,74.167H47.976L21.8,0H33.654Z" transform="translate(1.907)" fill="#096dd9"/>
      <path id="Path_1964" data-name="Path 1964" d="M48.93,74.167H37.076L10.9,0H22.754Z" transform="translate(0.954)" fill="#fff"/>
    </g>
  </g>
</svg>
